<?xml version="1.0" encoding="utf-8" standalone="no"?>
<!DOCTYPE svg PUBLIC "-//W3C//DTD SVG 1.1//EN"
  "http://www.w3.org/Graphics/SVG/1.1/DTD/svg11.dtd">
<svg xmlns:xlink="http://www.w3.org/1999/xlink" width="460.8pt" height="345.6pt" viewBox="0 0 460.8 345.6" xmlns="http://www.w3.org/2000/svg" version="1.1">
 <metadata>
  <rdf:RDF xmlns:dc="http://purl.org/dc/elements/1.1/" xmlns:cc="http://creativecommons.org/ns#" xmlns:rdf="http://www.w3.org/1999/02/22-rdf-syntax-ns#">
   <cc:Work>
    <dc:type rdf:resource="http://purl.org/dc/dcmitype/StillImage"/>
    <dc:date>2023-05-15T15:15:31.811078</dc:date>
    <dc:format>image/svg+xml</dc:format>
    <dc:creator>
     <cc:Agent>
      <dc:title>Matplotlib v3.5.2, https://matplotlib.org/</dc:title>
     </cc:Agent>
    </dc:creator>
   </cc:Work>
  </rdf:RDF>
 </metadata>
 <defs>
  <style type="text/css">*{stroke-linejoin: round; stroke-linecap: butt}</style>
 </defs>
 <g id="figure_1">
  <g id="patch_1">
   <path d="M 0 345.6 
L 460.8 345.6 
L 460.8 0 
L 0 0 
z
" style="fill: #ffffff"/>
  </g>
  <g id="axes_1">
   <g id="patch_2">
    <path d="M 103.104 307.584 
L 369.216 307.584 
L 369.216 41.472 
L 103.104 41.472 
z
" style="fill: #ffffff"/>
   </g>
   <g id="patch_3">
    <path d="M 103.104 396.288 
C 126.628576 396.288 149.192813 386.941587 165.8272 370.3072 
C 182.461587 353.672813 191.808 331.108576 191.808 307.584 
C 191.808 284.059424 182.461587 261.495187 165.8272 244.8608 
C 149.192813 228.226413 126.628576 218.88 103.104 218.88 
C 79.579424 218.88 57.015187 228.226413 40.3808 244.8608 
C 23.746413 261.495187 14.4 284.059424 14.4 307.584 
C 14.4 331.108576 23.746413 353.672813 40.3808 370.3072 
C 57.015187 386.941587 79.579424 396.288 103.104 396.288 
" clip-path="url(#p9c256eaff9)" style="fill: none; stroke: #0000ff; stroke-linejoin: miter"/>
   </g>
   <g id="patch_4">
    <path d="M 103.104 571.92192 
C 173.207236 571.92192 240.448662 544.069609 290.019136 494.499136 
C 339.589609 444.928662 367.44192 377.687236 367.44192 307.584 
C 367.44192 237.480764 339.589609 170.239338 290.019136 120.668864 
C 240.448662 71.098391 173.207236 43.24608 103.104 43.24608 
C 33.000764 43.24608 -34.240662 71.098391 -83.811136 120.668864 
C -133.381609 170.239338 -161.23392 237.480764 -161.23392 307.584 
C -161.23392 377.687236 -133.381609 444.928662 -83.811136 494.499136 
C -34.240662 544.069609 33.000764 571.92192 103.104 571.92192 
" clip-path="url(#p9c256eaff9)" style="fill: none; stroke: #0000ff; stroke-linejoin: miter"/>
   </g>
   <g id="matplotlib.axis_1">
    <g id="xtick_1">
     <g id="line2d_1">
      <defs>
       <path id="m24f0128e4a" d="M 0 0 
L 0 3.5 
" style="stroke: #000000; stroke-width: 0.8"/>
      </defs>
      <g>
       <use xlink:href="#m24f0128e4a" x="103.104" y="307.584" style="stroke: #000000; stroke-width: 0.8"/>
      </g>
     </g>
     <g id="text_1">
      <!-- 0 -->
      <g transform="translate(98.854 326.388375)scale(0.17 -0.17)">
       <defs>
        <path id="TimesNewRomanPSMT-30" d="M 231 2094 
Q 231 2819 450 3342 
Q 669 3866 1031 4122 
Q 1313 4325 1613 4325 
Q 2100 4325 2488 3828 
Q 2972 3213 2972 2159 
Q 2972 1422 2759 906 
Q 2547 391 2217 158 
Q 1888 -75 1581 -75 
Q 975 -75 572 641 
Q 231 1244 231 2094 
z
M 844 2016 
Q 844 1141 1059 588 
Q 1238 122 1591 122 
Q 1759 122 1940 273 
Q 2122 425 2216 781 
Q 2359 1319 2359 2297 
Q 2359 3022 2209 3506 
Q 2097 3866 1919 4016 
Q 1791 4119 1609 4119 
Q 1397 4119 1231 3928 
Q 1006 3669 925 3112 
Q 844 2556 844 2016 
z
" transform="scale(0.015625)"/>
       </defs>
       <use xlink:href="#TimesNewRomanPSMT-30"/>
      </g>
     </g>
    </g>
    <g id="xtick_2">
     <g id="line2d_2">
      <g>
       <use xlink:href="#m24f0128e4a" x="162.24" y="307.584" style="stroke: #000000; stroke-width: 0.8"/>
      </g>
     </g>
     <g id="text_2">
      <!-- 10 -->
      <g transform="translate(153.74 326.388375)scale(0.17 -0.17)">
       <defs>
        <path id="TimesNewRomanPSMT-31" d="M 750 3822 
L 1781 4325 
L 1884 4325 
L 1884 747 
Q 1884 391 1914 303 
Q 1944 216 2037 169 
Q 2131 122 2419 116 
L 2419 0 
L 825 0 
L 825 116 
Q 1125 122 1212 167 
Q 1300 213 1334 289 
Q 1369 366 1369 747 
L 1369 3034 
Q 1369 3497 1338 3628 
Q 1316 3728 1258 3775 
Q 1200 3822 1119 3822 
Q 1003 3822 797 3725 
L 750 3822 
z
" transform="scale(0.015625)"/>
       </defs>
       <use xlink:href="#TimesNewRomanPSMT-31"/>
       <use xlink:href="#TimesNewRomanPSMT-30" x="50"/>
      </g>
     </g>
    </g>
    <g id="xtick_3">
     <g id="line2d_3">
      <g>
       <use xlink:href="#m24f0128e4a" x="221.376" y="307.584" style="stroke: #000000; stroke-width: 0.8"/>
      </g>
     </g>
     <g id="text_3">
      <!-- 20 -->
      <g transform="translate(212.876 326.388375)scale(0.17 -0.17)">
       <defs>
        <path id="TimesNewRomanPSMT-32" d="M 2934 816 
L 2638 0 
L 138 0 
L 138 116 
Q 1241 1122 1691 1759 
Q 2141 2397 2141 2925 
Q 2141 3328 1894 3587 
Q 1647 3847 1303 3847 
Q 991 3847 742 3664 
Q 494 3481 375 3128 
L 259 3128 
Q 338 3706 661 4015 
Q 984 4325 1469 4325 
Q 1984 4325 2329 3994 
Q 2675 3663 2675 3213 
Q 2675 2891 2525 2569 
Q 2294 2063 1775 1497 
Q 997 647 803 472 
L 1909 472 
Q 2247 472 2383 497 
Q 2519 522 2628 598 
Q 2738 675 2819 816 
L 2934 816 
z
" transform="scale(0.015625)"/>
       </defs>
       <use xlink:href="#TimesNewRomanPSMT-32"/>
       <use xlink:href="#TimesNewRomanPSMT-30" x="50"/>
      </g>
     </g>
    </g>
    <g id="xtick_4">
     <g id="line2d_4">
      <g>
       <use xlink:href="#m24f0128e4a" x="280.512" y="307.584" style="stroke: #000000; stroke-width: 0.8"/>
      </g>
     </g>
     <g id="text_4">
      <!-- 30 -->
      <g transform="translate(272.012 326.388375)scale(0.17 -0.17)">
       <defs>
        <path id="TimesNewRomanPSMT-33" d="M 325 3431 
Q 506 3859 782 4092 
Q 1059 4325 1472 4325 
Q 1981 4325 2253 3994 
Q 2459 3747 2459 3466 
Q 2459 3003 1878 2509 
Q 2269 2356 2469 2072 
Q 2669 1788 2669 1403 
Q 2669 853 2319 450 
Q 1863 -75 997 -75 
Q 569 -75 414 31 
Q 259 138 259 259 
Q 259 350 332 419 
Q 406 488 509 488 
Q 588 488 669 463 
Q 722 447 909 348 
Q 1097 250 1169 231 
Q 1284 197 1416 197 
Q 1734 197 1970 444 
Q 2206 691 2206 1028 
Q 2206 1275 2097 1509 
Q 2016 1684 1919 1775 
Q 1784 1900 1550 2001 
Q 1316 2103 1072 2103 
L 972 2103 
L 972 2197 
Q 1219 2228 1467 2375 
Q 1716 2522 1828 2728 
Q 1941 2934 1941 3181 
Q 1941 3503 1739 3701 
Q 1538 3900 1238 3900 
Q 753 3900 428 3381 
L 325 3431 
z
" transform="scale(0.015625)"/>
       </defs>
       <use xlink:href="#TimesNewRomanPSMT-33"/>
       <use xlink:href="#TimesNewRomanPSMT-30" x="50"/>
      </g>
     </g>
    </g>
    <g id="xtick_5">
     <g id="line2d_5">
      <g>
       <use xlink:href="#m24f0128e4a" x="339.648" y="307.584" style="stroke: #000000; stroke-width: 0.8"/>
      </g>
     </g>
     <g id="text_5">
      <!-- 40 -->
      <g transform="translate(331.148 326.388375)scale(0.17 -0.17)">
       <defs>
        <path id="TimesNewRomanPSMT-34" d="M 2978 1563 
L 2978 1119 
L 2409 1119 
L 2409 0 
L 1894 0 
L 1894 1119 
L 100 1119 
L 100 1519 
L 2066 4325 
L 2409 4325 
L 2409 1563 
L 2978 1563 
z
M 1894 1563 
L 1894 3666 
L 406 1563 
L 1894 1563 
z
" transform="scale(0.015625)"/>
       </defs>
       <use xlink:href="#TimesNewRomanPSMT-34"/>
       <use xlink:href="#TimesNewRomanPSMT-30" x="50"/>
      </g>
     </g>
    </g>
   </g>
   <g id="matplotlib.axis_2">
    <g id="ytick_1">
     <g id="line2d_6">
      <defs>
       <path id="m15ce30e64e" d="M 0 0 
L -3.5 0 
" style="stroke: #000000; stroke-width: 0.8"/>
      </defs>
      <g>
       <use xlink:href="#m15ce30e64e" x="103.104" y="307.584" style="stroke: #000000; stroke-width: 0.8"/>
      </g>
     </g>
     <g id="text_6">
      <!-- 0 -->
      <g transform="translate(87.604 313.486187)scale(0.17 -0.17)">
       <use xlink:href="#TimesNewRomanPSMT-30"/>
      </g>
     </g>
    </g>
    <g id="ytick_2">
     <g id="line2d_7">
      <g>
       <use xlink:href="#m15ce30e64e" x="103.104" y="248.448" style="stroke: #000000; stroke-width: 0.8"/>
      </g>
     </g>
     <g id="text_7">
      <!-- 10 -->
      <g transform="translate(79.104 254.350187)scale(0.17 -0.17)">
       <use xlink:href="#TimesNewRomanPSMT-31"/>
       <use xlink:href="#TimesNewRomanPSMT-30" x="50"/>
      </g>
     </g>
    </g>
    <g id="ytick_3">
     <g id="line2d_8">
      <g>
       <use xlink:href="#m15ce30e64e" x="103.104" y="189.312" style="stroke: #000000; stroke-width: 0.8"/>
      </g>
     </g>
     <g id="text_8">
      <!-- 20 -->
      <g transform="translate(79.104 195.214187)scale(0.17 -0.17)">
       <use xlink:href="#TimesNewRomanPSMT-32"/>
       <use xlink:href="#TimesNewRomanPSMT-30" x="50"/>
      </g>
     </g>
    </g>
    <g id="ytick_4">
     <g id="line2d_9">
      <g>
       <use xlink:href="#m15ce30e64e" x="103.104" y="130.176" style="stroke: #000000; stroke-width: 0.8"/>
      </g>
     </g>
     <g id="text_9">
      <!-- 30 -->
      <g transform="translate(79.104 136.078187)scale(0.17 -0.17)">
       <use xlink:href="#TimesNewRomanPSMT-33"/>
       <use xlink:href="#TimesNewRomanPSMT-30" x="50"/>
      </g>
     </g>
    </g>
    <g id="ytick_5">
     <g id="line2d_10">
      <g>
       <use xlink:href="#m15ce30e64e" x="103.104" y="71.04" style="stroke: #000000; stroke-width: 0.8"/>
      </g>
     </g>
     <g id="text_10">
      <!-- 40 -->
      <g transform="translate(79.104 76.942188)scale(0.17 -0.17)">
       <use xlink:href="#TimesNewRomanPSMT-34"/>
       <use xlink:href="#TimesNewRomanPSMT-30" x="50"/>
      </g>
     </g>
    </g>
   </g>
   <g id="PathCollection_1">
    <path d="M 284.230944 307.584 
L 285.83424 306.392544 
L 287.8205 304.6272 
L 289.466906 302.85312 
L 291.15648 300.628749 
L 292.343071 298.7136 
L 293.52192 296.348146 
L 294.428468 293.98272 
L 295.084887 291.61728 
L 295.513286 289.25184 
L 295.723936 286.8864 
L 295.723018 284.52096 
L 295.51046 282.15552 
L 295.080161 279.79008 
L 294.421644 277.42464 
L 293.512986 275.0592 
L 292.331437 272.69376 
L 291.15648 270.799406 
L 289.936026 269.1456 
L 288.19968 267.181526 
L 286.4256 265.524201 
L 284.200588 263.82336 
L 282.28608 262.629537 
L 279.92064 261.442523 
L 277.5552 260.529316 
L 275.18976 259.866674 
L 272.82432 259.431877 
L 270.45888 259.216122 
L 268.09344 259.211406 
L 265.728 259.417362 
L 263.36256 259.842397 
L 260.99712 260.494251 
L 258.491692 261.45792 
L 256.26624 262.568228 
L 254.244549 263.82336 
L 252.647558 265.00608 
L 250.64572 266.78016 
L 248.995211 268.55424 
L 247.39584 270.642933 
L 246.112289 272.69376 
L 244.930614 275.0592 
L 244.024028 277.42464 
L 243.366099 279.79008 
L 242.934434 282.15552 
L 242.723744 284.52096 
L 242.722834 286.8864 
L 242.931633 289.25184 
L 243.361414 291.61728 
L 244.017259 293.98272 
L 244.92138 296.34816 
L 246.100445 298.7136 
L 247.39584 300.785213 
L 248.57856 302.368852 
L 250.35264 304.355929 
L 252.12672 305.995615 
L 254.214202 307.584 
L 254.214202 307.584 
" clip-path="url(#p9c256eaff9)" style="fill: none; stroke: #440154; stroke-width: 1.5"/>
   </g>
   <g id="PathCollection_2">
    <path d="M 254.49216 269.771222 
L 255.08352 269.842467 
L 255.67488 269.899744 
L 256.26624 269.943331 
L 256.8576 269.973438 
L 257.44896 269.99021 
L 258.04032 269.993728 
L 258.63168 269.984009 
L 259.22304 269.961007 
L 259.8144 269.92461 
L 260.40576 269.874643 
L 260.99712 269.810864 
L 261.558406 269.73696 
L 261.58848 269.733153 
L 262.17984 269.64513 
L 262.7712 269.542859 
L 263.36256 269.425832 
L 263.95392 269.293465 
L 264.543282 269.1456 
L 264.54528 269.145113 
L 265.13664 268.987468 
L 265.728 268.813005 
L 266.31936 268.620815 
L 266.509029 268.55424 
L 266.91072 268.416137 
L 267.50208 268.19533 
L 268.072948 267.96288 
L 268.09344 267.954663 
L 268.6848 267.702931 
L 269.27616 267.42913 
L 269.393645 267.37152 
L 269.86752 267.141087 
L 270.45888 266.830937 
L 270.550824 266.78016 
L 271.05024 266.50516 
L 271.585019 266.1888 
L 271.6416 266.155297 
L 272.23296 265.788149 
L 272.522345 265.59744 
L 272.82432 265.397153 
L 273.380526 265.00608 
L 273.41568 264.981106 
L 274.00704 264.54322 
L 274.172422 264.41472 
L 274.5984 264.078425 
L 274.906917 263.82336 
L 275.18976 263.58481 
L 275.590984 263.232 
L 275.78112 263.060743 
L 276.230414 262.64064 
L 276.37248 262.504014 
L 276.829907 262.04928 
L 276.96384 261.911762 
L 277.393242 261.45792 
L 277.5552 261.280368 
L 277.923417 260.86656 
L 278.14656 260.605324 
L 278.42276 260.2752 
L 278.73792 259.881062 
L 278.89301 259.68384 
L 279.32928 259.100749 
L 279.335389 259.09248 
L 279.756117 258.50112 
L 279.92064 258.256347 
L 280.151932 257.90976 
L 280.512 257.335553 
L 280.522721 257.3184 
L 280.876782 256.72704 
L 281.10336 256.321327 
L 281.207266 256.13568 
L 281.519982 255.54432 
L 281.69472 255.190284 
L 281.812751 254.95296 
L 282.0888 254.3616 
L 282.28608 253.905017 
L 282.345078 253.77024 
L 282.588121 253.17888 
L 282.810873 252.58752 
L 282.87744 252.397341 
L 283.0207 251.99616 
L 283.214725 251.4048 
L 283.39099 250.81344 
L 283.4688 250.527639 
L 283.554262 250.22208 
L 283.704432 249.63072 
L 283.838602 249.03936 
L 283.95745 248.448 
L 284.06016 247.864752 
L 284.06164 247.85664 
L 284.155987 247.26528 
L 284.235887 246.67392 
L 284.301733 246.08256 
L 284.353843 245.4912 
L 284.392471 244.89984 
L 284.417804 244.30848 
L 284.429962 243.71712 
L 284.429005 243.12576 
L 284.414928 242.5344 
L 284.387662 241.94304 
L 284.347078 241.35168 
L 284.292979 240.76032 
L 284.225102 240.16896 
L 284.143118 239.5776 
L 284.06016 239.068389 
L 284.047261 238.98624 
L 283.941023 238.39488 
L 283.819977 237.80352 
L 283.683514 237.21216 
L 283.530945 236.6208 
L 283.4688 236.401271 
L 283.366316 236.02944 
L 283.187517 235.43808 
L 282.990815 234.84672 
L 282.87744 234.532268 
L 282.779556 234.25536 
L 282.553919 233.664 
L 282.307803 233.07264 
L 282.28608 233.02341 
L 282.049901 232.48128 
L 281.770483 231.88992 
L 281.69472 231.738674 
L 281.475879 231.29856 
L 281.159431 230.7072 
L 281.10336 230.60767 
L 280.826827 230.11584 
L 280.512 229.593847 
L 280.470083 229.52448 
L 280.095305 228.93312 
L 279.92064 228.672882 
L 279.696747 228.34176 
L 279.32928 227.828398 
L 279.272812 227.7504 
L 278.825403 227.15904 
L 278.73792 227.048358 
L 278.351506 226.56768 
L 278.14656 226.323924 
L 277.848109 225.97632 
L 277.5552 225.648705 
L 277.313416 225.38496 
L 276.96384 225.017181 
L 276.745033 224.7936 
L 276.37248 224.424884 
L 276.139886 224.20224 
L 275.78112 223.868227 
L 275.494103 223.61088 
L 275.18976 223.344377 
L 274.802881 223.01952 
L 274.5984 222.851151 
L 274.060303 222.42816 
L 274.00704 222.386938 
L 273.41568 221.947142 
L 273.259712 221.8368 
L 272.82432 221.531843 
L 272.390748 221.24544 
L 272.23296 221.141842 
L 271.6416 220.77284 
L 271.440236 220.65408 
L 271.05024 220.424205 
L 270.45888 220.098564 
L 270.390326 220.06272 
L 269.86752 219.788033 
L 269.27616 219.500614 
L 269.212499 219.47136 
L 268.6848 219.226362 
L 268.09344 218.97311 
L 267.860378 218.88 
L 267.50208 218.734595 
L 266.91072 218.512385 
L 266.31936 218.30931 
L 266.254578 218.28864 
L 265.728 218.11678 
L 265.13664 217.941153 
L 264.54528 217.782456 
L 264.194471 217.69728 
L 263.95392 217.637121 
L 263.36256 217.50383 
L 262.7712 217.385986 
L 262.17984 217.283 
L 261.58848 217.194362 
L 260.99712 217.119636 
L 260.865324 217.10592 
L 260.40576 217.056078 
L 259.8144 217.005747 
L 259.22304 216.969084 
L 258.63168 216.945914 
L 258.04032 216.936125 
L 257.44896 216.939669 
L 256.8576 216.956563 
L 256.26624 216.98689 
L 255.67488 217.030794 
L 255.08352 217.088489 
L 254.938965 217.10592 
L 254.49216 217.157662 
L 253.9008 217.239736 
L 253.30944 217.335944 
L 252.71808 217.446762 
L 252.12672 217.572742 
L 251.606221 217.69728 
L 251.53536 217.713728 
L 250.944 217.864785 
L 250.35264 218.032377 
L 249.76128 218.217372 
L 249.550965 218.28864 
L 249.16992 218.414979 
L 248.57856 218.628086 
L 247.9872 218.860954 
L 247.941695 218.88 
L 247.39584 219.105099 
L 246.80448 219.36997 
L 246.592035 219.47136 
L 246.21312 219.6505 
L 245.62176 219.950729 
L 245.413852 220.06272 
L 245.0304 220.268442 
L 244.43904 220.608354 
L 244.363203 220.65408 
L 243.84768 220.965369 
L 243.413037 221.24544 
L 243.25632 221.346964 
L 242.66496 221.750353 
L 242.543986 221.8368 
L 242.0736 222.176603 
L 241.743105 222.42816 
L 241.48224 222.629684 
L 241.001126 223.01952 
L 240.89088 223.110549 
L 240.310583 223.61088 
L 240.29952 223.620639 
L 239.70816 224.161066 
L 239.664669 224.20224 
L 239.1168 224.735973 
L 239.059509 224.7936 
L 238.52544 225.348705 
L 238.491516 225.38496 
L 237.957152 225.97632 
L 237.93408 226.002809 
L 237.452834 226.56768 
L 237.34272 226.702759 
L 236.977424 227.15904 
L 236.75136 227.455467 
L 236.529577 227.7504 
L 236.16 228.268701 
L 236.108429 228.34176 
L 235.708713 228.93312 
L 235.56864 229.152278 
L 235.331837 229.52448 
L 234.979525 230.11584 
L 234.97728 230.119783 
L 234.642532 230.7072 
L 234.38592 231.192418 
L 234.329518 231.29856 
L 234.031739 231.88992 
L 233.79456 232.399268 
L 233.755981 232.48128 
L 233.493273 233.07264 
L 233.251984 233.664 
L 233.2032 233.791817 
L 233.023218 234.25536 
L 232.812012 234.84672 
L 232.619362 235.43808 
L 232.61184 235.462979 
L 232.436528 236.02944 
L 232.270729 236.6208 
L 232.121453 237.21216 
L 232.02048 237.657615 
L 231.986364 237.80352 
L 231.862211 238.39488 
L 231.753246 238.98624 
L 231.658929 239.5776 
L 231.578794 240.16896 
L 231.512448 240.76032 
L 231.459569 241.35168 
L 231.42912 241.805078 
L 231.419435 241.94304 
L 231.391438 242.5344 
L 231.376983 243.12576 
L 231.376001 243.71712 
L 231.388485 244.30848 
L 231.414497 244.89984 
L 231.42912 245.118507 
L 231.452957 245.4912 
L 231.503892 246.08256 
L 231.568252 246.67392 
L 231.646351 247.26528 
L 231.738569 247.85664 
L 231.845363 248.448 
L 231.967261 249.03936 
L 232.02048 249.270288 
L 232.100986 249.63072 
L 232.247915 250.22208 
L 232.41125 250.81344 
L 232.591835 251.4048 
L 232.61184 251.465518 
L 232.782743 251.99616 
L 232.991171 252.58752 
L 233.2032 253.138546 
L 233.218453 253.17888 
L 233.45673 253.77024 
L 233.71622 254.3616 
L 233.79456 254.529401 
L 233.990258 254.95296 
L 234.284492 255.54432 
L 234.38592 255.736507 
L 234.595538 256.13568 
L 234.928666 256.72704 
L 234.97728 256.809226 
L 235.2786 257.3184 
L 235.56864 257.777007 
L 235.652964 257.90976 
L 236.048035 258.50112 
L 236.16 258.66061 
L 236.466185 259.09248 
L 236.75136 259.473725 
L 236.910716 259.68384 
L 237.34272 260.226203 
L 237.382449 260.2752 
L 237.881407 260.86656 
L 237.93408 260.926662 
L 238.41073 261.45792 
L 238.52544 261.581077 
L 238.973731 262.04928 
L 239.1168 262.193829 
L 239.573302 262.64064 
L 239.70816 262.768864 
L 240.2131 263.232 
L 240.29952 263.309318 
L 240.89088 263.817786 
L 240.897601 263.82336 
L 241.48224 264.299006 
L 241.631386 264.41472 
L 242.0736 264.752641 
L 242.422971 265.00608 
L 242.66496 265.179667 
L 243.25632 265.581166 
L 243.28134 265.59744 
L 243.84768 265.963736 
L 244.218933 266.1888 
L 244.43904 266.321998 
L 245.0304 266.66009 
L 245.253339 266.78016 
L 245.62176 266.979315 
L 246.21312 267.27784 
L 246.410527 267.37152 
L 246.80448 267.560184 
L 247.39584 267.823466 
L 247.732671 267.96288 
L 247.9872 268.069769 
L 248.57856 268.301167 
L 249.16992 268.512928 
L 249.294073 268.55424 
L 249.76128 268.71308 
L 250.35264 268.896849 
L 250.944 269.063329 
L 251.26558 269.1456 
L 251.53536 269.216608 
L 252.12672 269.357398 
L 252.71808 269.482504 
L 253.30944 269.592553 
L 253.9008 269.688094 
L 254.253926 269.73696 
L 254.49216 269.771222 
z
" clip-path="url(#p9c256eaff9)" style="fill: none; stroke: #440154; stroke-width: 1.5"/>
   </g>
   <g id="PathCollection_3">
    <path d="M 233.2032 231.961229 
L 233.79456 232.018906 
L 234.38592 232.06285 
L 234.97728 232.093275 
L 235.56864 232.110327 
L 236.16 232.114089 
L 236.75136 232.104577 
L 237.34272 232.081747 
L 237.93408 232.045488 
L 238.52544 231.995626 
L 239.1168 231.93192 
L 239.437134 231.88992 
L 239.70816 231.855763 
L 240.29952 231.767757 
L 240.89088 231.665475 
L 241.48224 231.548408 
L 242.0736 231.415972 
L 242.542914 231.29856 
L 242.66496 231.268912 
L 243.25632 231.111163 
L 243.84768 230.93657 
L 244.43904 230.744223 
L 244.544772 230.7072 
L 245.0304 230.540668 
L 245.62176 230.319684 
L 246.123535 230.11584 
L 246.21312 230.080006 
L 246.80448 229.828084 
L 247.39584 229.554069 
L 247.456315 229.52448 
L 247.9872 229.266928 
L 248.57856 228.956563 
L 248.621101 228.93312 
L 249.16992 228.631608 
L 249.660932 228.34176 
L 249.76128 228.282478 
L 250.35264 227.915159 
L 250.603178 227.7504 
L 250.944 227.52486 
L 251.465397 227.15904 
L 251.53536 227.10945 
L 252.12672 226.671475 
L 252.260589 226.56768 
L 252.71808 226.207328 
L 252.998098 225.97632 
L 253.30944 225.714339 
L 253.684829 225.38496 
L 253.9008 225.190886 
L 254.326626 224.7936 
L 254.49216 224.63478 
L 254.928234 224.20224 
L 255.08352 224.04318 
L 255.493469 223.61088 
L 255.67488 223.412489 
L 256.025364 223.01952 
L 256.26624 222.738226 
L 256.526272 222.42816 
L 256.8576 222.014857 
L 256.997958 221.8368 
L 257.441882 221.24544 
L 257.44896 221.235634 
L 257.864015 220.65408 
L 258.04032 220.392501 
L 258.260976 220.06272 
L 258.63168 219.473229 
L 258.632851 219.47136 
L 258.988254 218.88 
L 259.22304 218.460864 
L 259.319713 218.28864 
L 259.633619 217.69728 
L 259.8144 217.3322 
L 259.927293 217.10592 
L 260.20441 216.51456 
L 260.40576 216.05022 
L 260.461555 215.9232 
L 260.705569 215.33184 
L 260.929237 214.74048 
L 260.99712 214.547351 
L 261.139905 214.14912 
L 261.334782 213.55776 
L 261.511861 212.9664 
L 261.58848 212.686408 
L 261.676002 212.37504 
L 261.82695 211.78368 
L 261.961872 211.19232 
L 262.08145 210.60096 
L 262.17984 210.04638 
L 262.1866 210.0096 
L 262.281675 209.41824 
L 262.362293 208.82688 
L 262.428848 208.23552 
L 262.481665 207.64416 
L 262.521 207.0528 
L 262.547042 206.46144 
L 262.559917 205.87008 
L 262.559687 205.27872 
L 262.54635 204.68736 
L 262.519843 204.096 
L 262.480037 203.50464 
L 262.426741 202.91328 
L 262.359697 202.32192 
L 262.278577 201.73056 
L 262.182985 201.1392 
L 262.17984 201.122161 
L 262.077496 200.54784 
L 261.957389 199.95648 
L 261.821915 199.36512 
L 261.670389 198.77376 
L 261.58848 198.483206 
L 261.505921 198.1824 
L 261.328233 197.59104 
L 261.13271 196.99968 
L 260.99712 196.62239 
L 260.921697 196.40832 
L 260.697335 195.81696 
L 260.452581 195.2256 
L 260.40576 195.119214 
L 260.195045 194.63424 
L 259.917117 194.04288 
L 259.8144 193.837353 
L 259.623 193.45152 
L 259.308197 192.86016 
L 259.22304 192.708692 
L 258.976226 192.2688 
L 258.63168 191.696434 
L 258.620225 191.67744 
L 258.247341 191.08608 
L 258.04032 190.777103 
L 257.849719 190.49472 
L 257.44896 189.93394 
L 257.426858 189.90336 
L 256.981678 189.312 
L 256.8576 189.154789 
L 256.509113 188.72064 
L 256.26624 188.431378 
L 256.007228 188.12928 
L 255.67488 187.757072 
L 255.474245 187.53792 
L 255.08352 187.126349 
L 254.907792 186.94656 
L 254.49216 186.534737 
L 254.304822 186.3552 
L 253.9008 185.978648 
L 253.661493 185.76384 
L 253.30944 185.455248 
L 252.973038 185.17248 
L 252.71808 184.962351 
L 252.23358 184.58112 
L 252.12672 184.498345 
L 251.53536 184.05991 
L 251.43629 183.98976 
L 250.944 183.64468 
L 250.571472 183.3984 
L 250.35264 183.254621 
L 249.76128 182.886856 
L 249.626044 182.80704 
L 249.16992 182.538021 
L 248.58264 182.21568 
L 248.57856 182.213434 
L 247.9872 181.902643 
L 247.412979 181.62432 
L 247.39584 181.615941 
L 246.80448 181.341529 
L 246.21312 181.089241 
L 246.072291 181.03296 
L 245.62176 180.850082 
L 245.0304 180.62876 
L 244.484145 180.4416 
L 244.43904 180.425819 
L 243.84768 180.233163 
L 243.25632 180.05829 
L 242.66496 179.900288 
L 242.458763 179.85024 
L 242.0736 179.753955 
L 241.48224 179.621297 
L 240.89088 179.504033 
L 240.29952 179.401579 
L 239.70816 179.313426 
L 239.274998 179.25888 
L 239.1168 179.238154 
L 238.52544 179.174336 
L 237.93408 179.124387 
L 237.34272 179.088064 
L 236.75136 179.065194 
L 236.16 179.055666 
L 235.56864 179.059434 
L 234.97728 179.076516 
L 234.38592 179.106994 
L 233.79456 179.151016 
L 233.2032 179.208793 
L 232.789699 179.25888 
L 232.61184 179.279573 
L 232.02048 179.361671 
L 231.42912 179.457873 
L 230.83776 179.568655 
L 230.2464 179.694569 
L 229.65504 179.836246 
L 229.60185 179.85024 
L 229.06368 179.987837 
L 228.47232 180.155297 
L 227.88096 180.340132 
L 227.58226 180.4416 
L 227.2896 180.538888 
L 226.69824 180.751811 
L 226.10688 180.984468 
L 225.991284 181.03296 
L 225.51552 181.229631 
L 224.92416 181.494278 
L 224.65228 181.62432 
L 224.3328 181.775717 
L 223.74144 182.075717 
L 223.482161 182.21568 
L 223.15008 182.394253 
L 222.55872 182.73394 
L 222.437741 182.80704 
L 221.96736 183.091716 
L 221.492426 183.3984 
L 221.376 183.473995 
L 220.78464 183.877216 
L 220.627478 183.98976 
L 220.19328 184.304133 
L 219.830147 184.58112 
L 219.60192 184.757833 
L 219.091283 185.17248 
L 219.01056 185.239286 
L 218.4192 185.749612 
L 218.403265 185.76384 
L 217.82784 186.290452 
L 217.759597 186.3552 
L 217.23648 186.866019 
L 217.156586 186.94656 
L 216.64512 187.479443 
L 216.590526 187.53792 
L 216.058368 188.12928 
L 216.05376 188.134584 
L 215.555644 188.72064 
L 215.4624 188.835316 
L 215.08169 189.312 
L 214.87104 189.588938 
L 214.635186 189.90336 
L 214.27968 190.403261 
L 214.215284 190.49472 
L 213.817122 191.08608 
L 213.68832 191.288175 
L 213.44133 191.67744 
L 213.09696 192.257301 
L 213.090135 192.2688 
L 212.754353 192.86016 
L 212.5056 193.331998 
L 212.44228 193.45152 
L 212.145654 194.04288 
L 211.91424 194.541543 
L 211.870777 194.63424 
L 211.609111 195.2256 
L 211.368799 195.81696 
L 211.32288 195.937747 
L 211.140864 196.40832 
L 210.93056 196.99968 
L 210.738766 197.59104 
L 210.73152 197.615139 
L 210.556766 198.1824 
L 210.391776 198.77376 
L 210.243277 199.36512 
L 210.14016 199.822766 
L 210.109077 199.95648 
L 209.985681 200.54784 
L 209.877454 201.1392 
L 209.783858 201.73056 
L 209.704432 202.32192 
L 209.638787 202.91328 
L 209.586604 203.50464 
L 209.5488 204.07816 
L 209.547571 204.096 
L 209.520305 204.68736 
L 209.506586 205.27872 
L 209.506349 205.87008 
L 209.519592 206.46144 
L 209.54638 207.0528 
L 209.5488 207.088332 
L 209.58501 207.64416 
L 209.636724 208.23552 
L 209.70189 208.82688 
L 209.780825 209.41824 
L 209.873915 210.0096 
L 209.981618 210.60096 
L 210.104471 211.19232 
L 210.14016 211.346388 
L 210.238342 211.78368 
L 210.386275 212.37504 
L 210.55067 212.9664 
L 210.73152 213.555021 
L 210.732341 213.55776 
L 210.923502 214.14912 
L 211.133137 214.74048 
L 211.32288 215.232097 
L 211.360715 215.33184 
L 211.6003 215.9232 
L 211.86119 216.51456 
L 211.91424 216.62791 
L 212.135653 217.10592 
L 212.431424 217.69728 
L 212.5056 217.837524 
L 212.743024 218.28864 
L 213.077853 218.88 
L 213.09696 218.912239 
L 213.428496 219.47136 
L 213.68832 219.881441 
L 213.803682 220.06272 
L 214.200725 220.65408 
L 214.27968 220.766365 
L 214.619905 221.24544 
L 214.87104 221.580661 
L 215.065611 221.8368 
L 215.4624 222.334229 
L 215.538679 222.42816 
L 216.040088 223.01952 
L 216.05376 223.035101 
L 216.571054 223.61088 
L 216.64512 223.690301 
L 217.135912 224.20224 
L 217.23648 224.303731 
L 217.737577 224.7936 
L 217.82784 224.879329 
L 218.379735 225.38496 
L 218.4192 225.420233 
L 219.01056 225.93011 
L 219.066337 225.97632 
L 219.60192 226.411649 
L 219.803227 226.56768 
L 220.19328 226.865483 
L 220.59832 227.15904 
L 220.78464 227.292587 
L 221.376 227.695352 
L 221.460698 227.7504 
L 221.96736 228.077866 
L 222.402986 228.34176 
L 222.55872 228.435943 
L 223.15008 228.775191 
L 223.443498 228.93312 
L 223.74144 229.094091 
L 224.3328 229.39368 
L 224.608566 229.52448 
L 224.92416 229.675556 
L 225.51552 229.939819 
L 225.940951 230.11584 
L 226.10688 230.185503 
L 226.69824 230.417805 
L 227.2896 230.630403 
L 227.520419 230.7072 
L 227.88096 230.829772 
L 228.47232 231.014311 
L 229.06368 231.181503 
L 229.521125 231.29856 
L 229.65504 231.333819 
L 230.2464 231.475259 
L 230.83776 231.600961 
L 231.42912 231.711558 
L 232.02048 231.807599 
L 232.61184 231.889559 
L 232.614938 231.88992 
L 233.2032 231.961229 
z
" clip-path="url(#p9c256eaff9)" style="fill: none; stroke: #440154; stroke-width: 1.5"/>
   </g>
   <g id="PathCollection_4">
    <path d="M 326.173017 307.584 
L 328.081438 305.80992 
L 329.661111 304.03584 
L 330.986601 302.26176 
L 332.427407 299.89632 
L 333.557775 297.53088 
L 334.416712 295.16544 
L 335.034008 292.8 
L 335.424455 290.43456 
L 335.599588 288.06912 
L 335.56225 285.70368 
L 335.315042 283.33824 
L 334.845517 280.9728 
L 334.148021 278.60736 
L 333.14304 276.129197 
L 331.96032 273.871074 
L 330.7776 272.03348 
L 329.472759 270.32832 
L 327.8208 268.521125 
L 325.896806 266.78016 
L 324.27264 265.550029 
L 321.9072 264.074392 
L 319.54176 262.916943 
L 317.17632 262.035662 
L 314.81088 261.395649 
L 312.44544 260.982881 
L 310.08 260.788282 
L 307.71456 260.805213 
L 305.34912 261.032493 
L 302.98368 261.481542 
L 300.61824 262.156278 
L 298.2528 263.080743 
L 295.88736 264.284682 
L 293.82722 265.59744 
L 292.270119 266.78016 
L 290.311692 268.55424 
L 288.694124 270.32832 
L 287.01696 272.576717 
L 285.83424 274.526668 
L 284.707701 276.83328 
L 283.82095 279.19872 
L 283.181157 281.56416 
L 282.770228 283.9296 
L 282.57305 286.29504 
L 282.589207 288.66048 
L 282.819957 291.02592 
L 283.264276 293.39136 
L 283.940933 295.7568 
L 284.864524 298.12224 
L 286.067582 300.48768 
L 287.60832 302.866977 
L 289.000258 304.6272 
L 290.68078 306.40128 
L 291.993469 307.584 
L 291.993469 307.584 
" clip-path="url(#p9c256eaff9)" style="fill: none; stroke: #440154; stroke-width: 1.5"/>
   </g>
   <g id="PathCollection_5">
    <path d="M 298.84416 273.926599 
L 299.43552 273.972803 
L 300.02688 274.005379 
L 300.61824 274.024486 
L 301.2096 274.030214 
L 301.80096 274.022592 
L 302.39232 274.001583 
L 302.98368 273.967086 
L 303.57504 273.918934 
L 303.980645 273.87648 
L 304.1664 273.85783 
L 304.75776 273.785242 
L 305.34912 273.698788 
L 305.94048 273.598043 
L 306.53184 273.482509 
L 307.1232 273.351609 
L 307.39329 273.28512 
L 307.71456 273.208362 
L 308.30592 273.052149 
L 308.89728 272.879126 
L 309.472339 272.69376 
L 309.48864 272.688625 
L 310.08 272.488323 
L 310.67136 272.269049 
L 311.086253 272.1024 
L 311.26272 272.032644 
L 311.85408 271.782588 
L 312.444399 271.51104 
L 312.44544 271.510566 
L 313.0368 271.226672 
L 313.62603 270.91968 
L 313.62816 270.918576 
L 314.21952 270.596869 
L 314.678668 270.32832 
L 314.81088 270.25097 
L 315.40224 269.886406 
L 315.631498 269.73696 
L 315.9936 269.499553 
L 316.502459 269.1456 
L 316.58496 269.087655 
L 317.17632 268.653205 
L 317.305026 268.55424 
L 317.76768 268.193024 
L 318.048954 267.96288 
L 318.35904 267.704226 
L 318.741324 267.37152 
L 318.9504 267.185264 
L 319.388135 266.78016 
L 319.54176 266.634032 
L 319.994259 266.1888 
L 320.13312 266.047781 
L 320.563621 265.59744 
L 320.72448 265.423027 
L 321.099345 265.00608 
L 321.31584 264.755417 
L 321.603865 264.41472 
L 321.9072 264.039575 
L 322.079017 263.82336 
L 322.49856 263.268893 
L 322.526105 263.232 
L 322.950536 262.64064 
L 323.08992 262.435666 
L 323.350616 262.04928 
L 323.68128 261.528149 
L 323.725667 261.45792 
L 324.082589 260.86656 
L 324.27264 260.530424 
L 324.417168 260.2752 
L 324.732346 259.68384 
L 324.864 259.420546 
L 325.029192 259.09248 
L 325.307401 258.50112 
L 325.45536 258.163401 
L 325.56787 257.90976 
L 325.812853 257.3184 
L 326.037462 256.72704 
L 326.04672 256.701003 
L 326.251657 256.13568 
L 326.447424 255.54432 
L 326.625392 254.95296 
L 326.63808 254.907208 
L 326.793429 254.3616 
L 326.945279 253.77024 
L 327.081123 253.17888 
L 327.201652 252.58752 
L 327.22944 252.433705 
L 327.31129 251.99616 
L 327.407409 251.4048 
L 327.489122 250.81344 
L 327.556829 250.22208 
L 327.61086 249.63072 
L 327.651477 249.03936 
L 327.678876 248.448 
L 327.693189 247.85664 
L 327.694484 247.26528 
L 327.682769 246.67392 
L 327.657986 246.08256 
L 327.620017 245.4912 
L 327.568678 244.89984 
L 327.50372 244.30848 
L 327.424828 243.71712 
L 327.331615 243.12576 
L 327.22944 242.565876 
L 327.223894 242.5344 
L 327.106343 241.94304 
L 326.973603 241.35168 
L 326.825002 240.76032 
L 326.659781 240.16896 
L 326.63808 240.097427 
L 326.484278 239.5776 
L 326.292137 238.98624 
L 326.081373 238.39488 
L 326.04672 238.304046 
L 325.859196 237.80352 
L 325.618377 237.21216 
L 325.45536 236.840623 
L 325.360128 236.6208 
L 325.086485 236.02944 
L 324.864 235.583239 
L 324.792148 235.43808 
L 324.48203 234.84672 
L 324.27264 234.473649 
L 324.150352 234.25536 
L 323.799095 233.664 
L 323.68128 233.476069 
L 323.427457 233.07264 
L 323.08992 232.568442 
L 323.031129 232.48128 
L 322.613416 231.88992 
L 322.49856 231.734967 
L 322.170829 231.29856 
L 321.9072 230.964491 
L 321.700668 230.7072 
L 321.31584 230.248931 
L 321.201696 230.11584 
L 320.72448 229.5816 
L 320.672156 229.52448 
L 320.13312 228.957055 
L 320.109706 228.93312 
L 319.54176 228.370893 
L 319.511327 228.34176 
L 318.9504 227.819585 
L 318.873219 227.7504 
L 318.35904 227.300345 
L 318.190654 227.15904 
L 317.76768 226.811033 
L 317.457807 226.56768 
L 317.17632 226.35007 
L 316.667526 225.97632 
L 316.58496 225.916377 
L 315.9936 225.505285 
L 315.811091 225.38496 
L 315.40224 225.117084 
L 314.876054 224.7936 
L 314.81088 224.753626 
L 314.21952 224.407448 
L 313.844244 224.20224 
L 313.62816 224.083709 
L 313.0368 223.777955 
L 312.690544 223.61088 
L 312.44544 223.491595 
L 311.85408 223.221779 
L 311.374336 223.01952 
L 311.26272 222.971801 
L 310.67136 222.734427 
L 310.08 222.517041 
L 309.818719 222.42816 
L 309.48864 222.3135 
L 308.89728 222.124488 
L 308.30592 221.953028 
L 307.863975 221.8368 
L 307.71456 221.796394 
L 307.1232 221.650857 
L 306.53184 221.521195 
L 305.94048 221.406753 
L 305.34912 221.30696 
L 304.925554 221.24544 
L 304.75776 221.220125 
L 304.1664 221.144649 
L 303.57504 221.083222 
L 302.98368 221.035545 
L 302.39232 221.001389 
L 301.80096 220.980587 
L 301.2096 220.97304 
L 300.61824 220.978712 
L 300.02688 220.99763 
L 299.43552 221.029885 
L 298.84416 221.075633 
L 298.2528 221.135094 
L 297.66144 221.208558 
L 297.411611 221.24544 
L 297.07008 221.29397 
L 296.47872 221.391727 
L 295.88736 221.504059 
L 295.296 221.631526 
L 294.70464 221.77477 
L 294.47244 221.8368 
L 294.11328 221.930088 
L 293.52192 222.099135 
L 292.93056 222.285601 
L 292.516179 222.42816 
L 292.3392 222.487771 
L 291.74784 222.702422 
L 291.15648 222.936886 
L 290.961646 223.01952 
L 290.56512 223.185327 
L 289.97376 223.451962 
L 289.644873 223.61088 
L 289.3824 223.736596 
L 288.79104 224.038835 
L 288.491211 224.20224 
L 288.19968 224.360589 
L 287.60832 224.702841 
L 287.459467 224.7936 
L 287.01696 225.063974 
L 286.524262 225.38496 
L 286.4256 225.449623 
L 285.83424 225.856078 
L 285.667747 225.97632 
L 285.24288 226.286718 
L 284.877608 226.56768 
L 284.65152 226.744301 
L 284.144982 227.15904 
L 284.06016 227.229859 
L 283.4688 227.744789 
L 283.462566 227.7504 
L 282.87744 228.290497 
L 282.82384 228.34176 
L 282.28608 228.871375 
L 282.225316 228.93312 
L 281.69472 229.490654 
L 281.66339 229.52448 
L 281.134434 230.11584 
L 281.10336 230.151915 
L 280.635196 230.7072 
L 280.512 230.860027 
L 280.164588 231.29856 
L 279.92064 231.622069 
L 279.72135 231.88992 
L 279.32928 232.446074 
L 279.304694 232.48128 
L 278.908312 233.07264 
L 278.73792 233.34241 
L 278.535593 233.664 
L 278.186105 234.25536 
L 278.14656 234.325682 
L 277.853104 234.84672 
L 277.5552 235.417184 
L 277.544229 235.43808 
L 277.248708 236.02944 
L 276.976616 236.6208 
L 276.96384 236.650184 
L 276.716449 237.21216 
L 276.47707 237.80352 
L 276.37248 238.0817 
L 276.252618 238.39488 
L 276.043178 238.98624 
L 275.852244 239.5776 
L 275.78112 239.817161 
L 275.674056 240.16896 
L 275.509924 240.76032 
L 275.362301 241.35168 
L 275.230435 241.94304 
L 275.18976 242.147111 
L 275.109955 242.5344 
L 275.002706 243.12576 
L 274.910134 243.71712 
L 274.831785 244.30848 
L 274.767275 244.89984 
L 274.716289 245.4912 
L 274.678581 246.08256 
L 274.653969 246.67392 
L 274.642334 247.26528 
L 274.643621 247.85664 
L 274.657835 248.448 
L 274.685045 249.03936 
L 274.725383 249.63072 
L 274.779042 250.22208 
L 274.846283 250.81344 
L 274.927433 251.4048 
L 275.022891 251.99616 
L 275.133126 252.58752 
L 275.18976 252.856386 
L 275.255489 253.17888 
L 275.390439 253.77024 
L 275.541288 254.3616 
L 275.708809 254.95296 
L 275.78112 255.186989 
L 275.888866 255.54432 
L 276.083403 256.13568 
L 276.296662 256.72704 
L 276.37248 256.92272 
L 276.523136 257.3184 
L 276.766654 257.90976 
L 276.96384 258.352828 
L 277.029044 258.50112 
L 277.305676 259.09248 
L 277.5552 259.58635 
L 277.604128 259.68384 
L 277.917619 260.2752 
L 278.14656 260.678089 
L 278.253527 260.86656 
L 278.608652 261.45792 
L 278.73792 261.66172 
L 278.984791 262.04928 
L 279.32928 262.557989 
L 279.385708 262.64064 
L 279.808279 263.232 
L 279.92064 263.381929 
L 280.256028 263.82336 
L 280.512 264.144229 
L 280.73164 264.41472 
L 281.10336 264.852664 
L 281.236441 265.00608 
L 281.69472 265.513709 
L 281.77229 265.59744 
L 282.28608 266.132629 
L 282.341647 266.1888 
L 282.87744 266.71368 
L 282.947665 266.78016 
L 283.4688 267.260266 
L 283.594302 267.37152 
L 284.06016 267.775063 
L 284.286472 267.96288 
L 284.65152 268.260121 
L 285.030225 268.55424 
L 285.24288 268.716934 
L 285.832982 269.1456 
L 285.83424 269.146504 
L 286.4256 269.555573 
L 286.703896 269.73696 
L 287.01696 269.939882 
L 287.60832 270.300327 
L 287.656476 270.32832 
L 288.19968 270.644073 
L 288.709771 270.91968 
L 288.79104 270.963758 
L 289.3824 271.268354 
L 289.891697 271.51104 
L 289.97376 271.550507 
L 290.56512 271.81934 
L 291.15648 272.066396 
L 291.248358 272.1024 
L 291.74784 272.301332 
L 292.3392 272.517847 
L 292.864036 272.69376 
L 292.93056 272.716544 
L 293.52192 272.90471 
L 294.11328 273.075297 
L 294.70464 273.229194 
L 294.941924 273.28512 
L 295.296 273.371125 
L 295.88736 273.499808 
L 296.47872 273.613212 
L 297.07008 273.711903 
L 297.66144 273.796367 
L 298.2528 273.867019 
L 298.350053 273.87648 
L 298.84416 273.926599 
z
" clip-path="url(#p9c256eaff9)" style="fill: none; stroke: #440154; stroke-width: 1.5"/>
   </g>
   <g id="PathCollection_6">
    <path d="M 280.512 236.040958 
L 281.10336 236.152619 
L 281.69472 236.24942 
L 282.28608 236.331841 
L 282.87744 236.400285 
L 283.4688 236.455085 
L 284.06016 236.496507 
L 284.65152 236.524751 
L 285.24288 236.539953 
L 285.83424 236.542187 
L 286.4256 236.531462 
L 287.01696 236.507728 
L 287.60832 236.47087 
L 288.19968 236.420711 
L 288.79104 236.357007 
L 289.3824 236.279449 
L 289.97376 236.187657 
L 290.56512 236.08118 
L 290.818594 236.02944 
L 291.15648 235.962743 
L 291.74784 235.831627 
L 292.3392 235.684762 
L 292.93056 235.521398 
L 293.206236 235.43808 
L 293.52192 235.345025 
L 294.11328 235.154886 
L 294.70464 234.946268 
L 294.966279 234.84672 
L 295.296 234.72351 
L 295.88736 234.485019 
L 296.411886 234.25536 
L 296.47872 234.226465 
L 297.07008 233.955357 
L 297.655369 233.664 
L 297.66144 233.661 
L 298.2528 233.353657 
L 298.75412 233.07264 
L 298.84416 233.022259 
L 299.43552 232.674054 
L 299.743309 232.48128 
L 300.02688 232.30302 
L 300.61824 231.908139 
L 300.644441 231.88992 
L 301.2096 231.493315 
L 301.472468 231.29856 
L 301.80096 231.051968 
L 302.237983 230.7072 
L 302.39232 230.58334 
L 302.949123 230.11584 
L 302.98368 230.086205 
L 303.57504 229.559603 
L 303.613114 229.52448 
L 304.1664 229.000189 
L 304.234827 228.93312 
L 304.75776 228.404418 
L 304.817926 228.34176 
L 305.34912 227.76874 
L 305.365694 227.7504 
L 305.88222 227.15904 
L 305.94048 227.089564 
L 306.369532 226.56768 
L 306.53184 226.360819 
L 306.828807 225.97632 
L 307.1232 225.575127 
L 307.261107 225.38496 
L 307.668583 224.7936 
L 307.71456 224.723766 
L 308.055778 224.20224 
L 308.30592 223.794714 
L 308.418492 223.61088 
L 308.761498 223.01952 
L 308.89728 222.770725 
L 309.084819 222.42816 
L 309.387694 221.8368 
L 309.48864 221.627096 
L 309.673933 221.24544 
L 309.941121 220.65408 
L 310.08 220.32371 
L 310.191253 220.06272 
L 310.426213 219.47136 
L 310.641348 218.88 
L 310.67136 218.791428 
L 310.845327 218.28864 
L 311.032255 217.69728 
L 311.201766 217.10592 
L 311.26272 216.872887 
L 311.359095 216.51456 
L 311.502813 215.9232 
L 311.630768 215.33184 
L 311.743603 214.74048 
L 311.841881 214.14912 
L 311.85408 214.064211 
L 311.929657 213.55776 
L 312.003704 212.9664 
L 312.063779 212.37504 
L 312.110173 211.78368 
L 312.143112 211.19232 
L 312.162754 210.60096 
L 312.169193 210.0096 
L 312.16246 209.41824 
L 312.142524 208.82688 
L 312.109287 208.23552 
L 312.06259 207.64416 
L 312.002207 207.0528 
L 311.927845 206.46144 
L 311.85408 205.968813 
L 311.839846 205.87008 
L 311.741249 205.27872 
L 311.628083 204.68736 
L 311.499785 204.096 
L 311.355707 203.50464 
L 311.26272 203.159571 
L 311.198172 202.91328 
L 311.028283 202.32192 
L 310.840956 201.73056 
L 310.67136 201.241149 
L 310.636761 201.1392 
L 310.421198 200.54784 
L 310.185782 199.95648 
L 310.08 199.708637 
L 309.935408 199.36512 
L 309.667721 198.77376 
L 309.48864 198.405314 
L 309.381211 198.1824 
L 309.077785 197.59104 
L 308.89728 197.26166 
L 308.754151 196.99968 
L 308.41053 196.40832 
L 308.30592 196.237648 
L 308.04745 195.81696 
L 307.71456 195.308617 
L 307.659853 195.2256 
L 307.25165 194.63424 
L 307.1232 194.45726 
L 306.818869 194.04288 
L 306.53184 193.671542 
L 306.359062 193.45152 
L 305.94048 192.94276 
L 305.87116 192.86016 
L 305.353699 192.2688 
L 305.34912 192.263736 
L 304.805212 191.67744 
L 304.75776 191.628057 
L 304.221308 191.08608 
L 304.1664 191.032298 
L 303.598693 190.49472 
L 303.57504 190.472915 
L 302.98368 189.946034 
L 302.933886 189.90336 
L 302.39232 189.44894 
L 302.221572 189.312 
L 301.80096 188.980381 
L 301.454729 188.72064 
L 301.2096 188.539136 
L 300.625192 188.12928 
L 300.61824 188.124449 
L 300.02688 187.729274 
L 299.722292 187.53792 
L 299.43552 187.35841 
L 298.84416 187.009929 
L 298.730842 186.94656 
L 298.2528 186.678738 
L 297.66144 186.371136 
L 297.629176 186.3552 
L 297.07008 186.07703 
L 296.47872 185.80568 
L 296.381889 185.76384 
L 295.88736 185.547427 
L 295.296 185.308711 
L 294.931231 185.17248 
L 294.70464 185.086311 
L 294.11328 184.877486 
L 293.52192 184.687159 
L 293.161995 184.58112 
L 292.93056 184.511208 
L 292.3392 184.347674 
L 291.74784 184.200656 
L 291.15648 184.069404 
L 290.752791 183.98976 
L 290.56512 183.951471 
L 289.97376 183.844878 
L 289.3824 183.752986 
L 288.79104 183.675344 
L 288.19968 183.611571 
L 287.60832 183.561357 
L 287.01696 183.524459 
L 286.4256 183.500699 
L 285.83424 183.489963 
L 285.24288 183.492199 
L 284.65152 183.507418 
L 284.06016 183.535693 
L 283.4688 183.57716 
L 282.87744 183.632019 
L 282.28608 183.700537 
L 281.69472 183.783047 
L 281.10336 183.879954 
L 280.52232 183.98976 
L 280.512 183.991644 
L 279.92064 184.112933 
L 279.32928 184.249544 
L 278.73792 184.402168 
L 278.14656 184.571588 
L 278.115824 184.58112 
L 277.5552 184.750775 
L 276.96384 184.947362 
L 276.37248 185.162821 
L 276.347615 185.17248 
L 275.78112 185.38872 
L 275.18976 185.634625 
L 274.900013 185.76384 
L 274.5984 185.896722 
L 274.00704 186.175956 
L 273.652838 186.3552 
L 273.41568 186.474408 
L 272.82432 186.790749 
L 272.55046 186.94656 
L 272.23296 187.126965 
L 271.6416 187.48523 
L 271.558604 187.53792 
L 271.05024 187.862008 
L 270.655839 188.12928 
L 270.45888 188.263836 
L 269.86752 188.689977 
L 269.826623 188.72064 
L 269.27616 189.13902 
L 269.059385 189.312 
L 268.6848 189.616225 
L 268.346554 189.90336 
L 268.09344 190.122933 
L 267.681605 190.49472 
L 267.50208 190.661017 
L 267.059233 191.08608 
L 266.91072 191.232957 
L 266.475145 191.67744 
L 266.31936 191.841927 
L 265.925904 192.2688 
L 265.728 192.491915 
L 265.408808 192.86016 
L 265.13664 193.187864 
L 264.921785 193.45152 
L 264.54528 193.935858 
L 264.463323 194.04288 
L 264.029979 194.63424 
L 263.95392 194.743015 
L 263.619648 195.2256 
L 263.36256 195.61949 
L 263.234379 195.81696 
L 262.87062 196.40832 
L 262.7712 196.579051 
L 262.526261 196.99968 
L 262.205226 197.59104 
L 262.17984 197.640257 
L 261.898681 198.1824 
L 261.61536 198.77376 
L 261.58848 198.833122 
L 261.344953 199.36512 
L 261.095401 199.95648 
L 260.99712 200.206475 
L 260.86072 200.54784 
L 260.641907 201.1392 
L 260.44206 201.73056 
L 260.40576 201.846511 
L 260.253432 202.32192 
L 260.080854 202.91328 
L 259.925093 203.50464 
L 259.8144 203.971414 
L 259.783951 204.096 
L 259.653526 204.68736 
L 259.538484 205.27872 
L 259.438253 205.87008 
L 259.352335 206.46144 
L 259.280309 207.0528 
L 259.22304 207.631766 
L 259.221762 207.64416 
L 259.174256 208.23552 
L 259.140444 208.82688 
L 259.120162 209.41824 
L 259.113313 210.0096 
L 259.119864 210.60096 
L 259.139845 211.19232 
L 259.173354 211.78368 
L 259.220552 212.37504 
L 259.22304 212.399278 
L 259.278859 212.9664 
L 259.35058 213.55776 
L 259.436184 214.14912 
L 259.536091 214.74048 
L 259.650797 215.33184 
L 259.780872 215.9232 
L 259.8144 216.060671 
L 259.921807 216.51456 
L 260.077203 217.10592 
L 260.249397 217.69728 
L 260.40576 218.18608 
L 260.437814 218.28864 
L 260.637252 218.88 
L 260.855629 219.47136 
L 260.99712 219.825938 
L 261.090079 220.06272 
L 261.339158 220.65408 
L 261.58848 221.199384 
L 261.609309 221.24544 
L 261.89211 221.8368 
L 262.17984 222.392207 
L 262.198364 222.42816 
L 262.518821 223.01952 
L 262.7712 223.453348 
L 262.862842 223.61088 
L 263.225952 224.20224 
L 263.36256 224.412881 
L 263.610821 224.7936 
L 263.95392 225.289352 
L 264.020712 225.38496 
L 264.453283 225.97632 
L 264.54528 226.096547 
L 264.911216 226.56768 
L 265.13664 226.844517 
L 265.397652 227.15904 
L 265.728 227.540437 
L 265.914095 227.7504 
L 266.31936 228.190399 
L 266.462606 228.34176 
L 266.91072 228.799354 
L 267.045878 228.93312 
L 267.50208 229.371294 
L 267.667335 229.52448 
L 268.09344 229.909399 
L 268.331253 230.11584 
L 268.6848 230.416152 
L 269.042923 230.7072 
L 269.27616 230.893431 
L 269.808845 231.29856 
L 269.86752 231.342578 
L 270.45888 231.768424 
L 270.63661 231.88992 
L 271.05024 232.170385 
L 271.537611 232.48128 
L 271.6416 232.547335 
L 272.23296 232.905316 
L 272.527264 233.07264 
L 272.82432 233.24174 
L 273.41568 233.557815 
L 273.626807 233.664 
L 274.00704 233.856519 
L 274.5984 234.135504 
L 274.870292 234.25536 
L 275.18976 234.397903 
L 275.78112 234.643577 
L 276.31301 234.84672 
L 276.37248 234.869834 
L 276.96384 235.085079 
L 277.5552 235.281471 
L 278.072432 235.43808 
L 278.14656 235.46108 
L 278.73792 235.630324 
L 279.32928 235.78279 
L 279.92064 235.919259 
L 280.457679 236.02944 
L 280.512 236.040958 
z
" clip-path="url(#p9c256eaff9)" style="fill: none; stroke: #440154; stroke-width: 1.5"/>
   </g>
   <g id="PathCollection_7">
    <path d="M 258.63168 202.428728 
L 259.22304 202.524017 
L 259.8144 202.604944 
L 260.40576 202.671905 
L 260.99712 202.725226 
L 261.58848 202.765166 
L 262.17984 202.791916 
L 262.7712 202.805607 
L 263.36256 202.806304 
L 263.95392 202.794009 
L 264.54528 202.768665 
L 265.13664 202.730149 
L 265.728 202.678276 
L 266.31936 202.612793 
L 266.91072 202.533383 
L 267.50208 202.439656 
L 268.09344 202.331151 
L 268.138114 202.32192 
L 268.6848 202.212671 
L 269.27616 202.079428 
L 269.86752 201.930316 
L 270.45888 201.764574 
L 270.570522 201.73056 
L 271.05024 201.587998 
L 271.6416 201.395316 
L 272.23296 201.183988 
L 272.349939 201.1392 
L 272.82432 200.960803 
L 273.41568 200.719376 
L 273.805344 200.54784 
L 274.00704 200.460159 
L 274.5984 200.185843 
L 275.056987 199.95648 
L 275.18976 199.890547 
L 275.78112 199.57967 
L 276.162288 199.36512 
L 276.37248 199.247011 
L 276.96384 198.894883 
L 277.156524 198.77376 
L 277.5552 198.522206 
L 278.061436 198.1824 
L 278.14656 198.124822 
L 278.73792 197.706013 
L 278.892636 197.59104 
L 279.32928 197.262242 
L 279.661159 196.99968 
L 279.92064 196.790833 
L 280.37502 196.40832 
L 280.512 196.29053 
L 281.040854 195.81696 
L 281.10336 195.759552 
L 281.66406 195.2256 
L 281.69472 195.19553 
L 282.249009 194.63424 
L 282.28608 194.595414 
L 282.799198 194.04288 
L 282.87744 193.955369 
L 283.317389 193.45152 
L 283.4688 193.270624 
L 283.805699 192.86016 
L 284.06016 192.535303 
L 284.265688 192.2688 
L 284.65152 191.742194 
L 284.698416 191.67744 
L 285.109009 191.08608 
L 285.24288 190.882482 
L 285.496305 190.49472 
L 285.83424 189.943547 
L 285.858826 189.90336 
L 286.204651 189.312 
L 286.4256 188.906811 
L 286.527454 188.72064 
L 286.832917 188.12928 
L 287.01696 187.746744 
L 287.118308 187.53792 
L 287.387877 186.94656 
L 287.60832 186.422071 
L 287.636826 186.3552 
L 287.873979 185.76384 
L 288.091147 185.17248 
L 288.19968 184.852328 
L 288.29358 184.58112 
L 288.482382 183.98976 
L 288.653627 183.3984 
L 288.79104 182.873799 
L 288.809024 182.80704 
L 288.954335 182.21568 
L 289.08376 181.62432 
L 289.197952 181.03296 
L 289.297481 180.4416 
L 289.3824 179.853312 
L 289.382861 179.85024 
L 289.458033 179.25888 
L 289.519136 178.66752 
L 289.566467 178.07616 
L 289.600254 177.4848 
L 289.62066 176.89344 
L 289.627783 176.30208 
L 289.621658 175.71072 
L 289.602255 175.11936 
L 289.56948 174.528 
L 289.523177 173.93664 
L 289.46312 173.34528 
L 289.389019 172.75392 
L 289.3824 172.709273 
L 289.304396 172.16256 
L 289.205951 171.5712 
L 289.092882 170.97984 
L 288.964625 170.38848 
L 288.820534 169.79712 
L 288.79104 169.686919 
L 288.665836 169.20576 
L 288.495876 168.6144 
L 288.308429 168.02304 
L 288.19968 167.707327 
L 288.106724 167.43168 
L 287.891012 166.84032 
L 287.655407 166.24896 
L 287.60832 166.138029 
L 287.407275 165.6576 
L 287.139399 165.06624 
L 287.01696 164.812999 
L 286.854923 164.47488 
L 286.551331 163.88352 
L 286.4256 163.652913 
L 286.229581 163.29216 
L 285.885845 162.7008 
L 285.83424 162.616184 
L 285.524558 162.10944 
L 285.24288 161.677147 
L 285.138616 161.51808 
L 284.730491 160.92672 
L 284.65152 160.817376 
L 284.299382 160.33536 
L 284.06016 160.024334 
L 283.841187 159.744 
L 283.4688 159.289125 
L 283.354869 159.15264 
L 282.87744 158.604502 
L 282.838897 158.56128 
L 282.291292 157.96992 
L 282.28608 157.964469 
L 281.709273 157.37856 
L 281.69472 157.364232 
L 281.10336 156.800503 
L 281.08891 156.7872 
L 280.512 156.269466 
L 280.426577 156.19584 
L 279.92064 155.76902 
L 279.716667 155.60448 
L 279.32928 155.297372 
L 278.952616 155.01312 
L 278.73792 154.853254 
L 278.14656 154.435422 
L 278.126405 154.42176 
L 277.5552 154.037596 
L 277.227503 153.8304 
L 276.96384 153.664344 
L 276.37248 153.313159 
L 276.24084 153.23904 
L 275.78112 152.979796 
L 275.18976 152.669805 
L 275.145294 152.64768 
L 274.5984 152.373658 
L 274.00704 152.100169 
L 273.906367 152.05632 
L 273.41568 151.839933 
L 272.82432 151.599273 
L 272.467833 151.46496 
L 272.23296 151.37488 
L 271.6416 151.164258 
L 271.05024 150.97222 
L 270.718994 150.8736 
L 270.45888 150.794218 
L 269.86752 150.629057 
L 269.27616 150.480468 
L 268.6848 150.347691 
L 268.357867 150.28224 
L 268.09344 150.227512 
L 267.50208 150.119404 
L 266.91072 150.026021 
L 266.31936 149.946901 
L 265.728 149.881658 
L 265.13664 149.829975 
L 264.54528 149.7916 
L 263.95392 149.766348 
L 263.36256 149.754099 
L 262.7712 149.754793 
L 262.17984 149.768434 
L 261.58848 149.795087 
L 260.99712 149.83488 
L 260.40576 149.888005 
L 259.8144 149.954721 
L 259.22304 150.035352 
L 258.63168 150.130292 
L 258.04032 150.24001 
L 257.838682 150.28224 
L 257.44896 150.361204 
L 256.8576 150.495644 
L 256.26624 150.645974 
L 255.67488 150.812963 
L 255.477803 150.8736 
L 255.08352 150.99197 
L 254.49216 151.185952 
L 253.9008 151.398633 
L 253.729003 151.46496 
L 253.30944 151.624116 
L 252.71808 151.867007 
L 252.291304 152.05632 
L 252.12672 152.12844 
L 251.53536 152.404377 
L 251.052333 152.64768 
L 250.944 152.701877 
L 250.35264 153.014582 
L 249.95651 153.23904 
L 249.76128 153.34951 
L 249.16992 153.703734 
L 248.96968 153.8304 
L 248.57856 154.078827 
L 248.070801 154.42176 
L 247.9872 154.478677 
L 247.39584 154.900115 
L 247.244666 155.01312 
L 246.80448 155.346661 
L 246.480483 155.60448 
L 246.21312 155.821002 
L 245.770404 156.19584 
L 245.62176 156.324442 
L 245.107907 156.7872 
L 245.0304 156.858817 
L 244.487687 157.37856 
L 244.43904 157.426559 
L 243.905452 157.96992 
L 243.84768 158.030788 
L 243.357771 158.56128 
L 243.25632 158.675428 
L 242.841942 159.15264 
L 242.66496 159.365347 
L 242.355895 159.744 
L 242.0736 160.106542 
L 241.898116 160.33536 
L 241.48224 160.906371 
L 241.467585 160.92672 
L 241.058048 161.51808 
L 240.89088 161.773878 
L 240.672829 162.10944 
L 240.312009 162.7008 
L 240.29952 162.722225 
L 239.967369 163.29216 
L 239.70816 163.770564 
L 239.646734 163.88352 
L 239.341869 164.47488 
L 239.1168 164.945829 
L 239.05873 165.06624 
L 238.789667 165.6576 
L 238.542389 166.24896 
L 238.52544 166.292072 
L 238.306418 166.84032 
L 238.0897 167.43168 
L 237.93408 167.894367 
L 237.889865 168.02304 
L 237.7015 168.6144 
L 237.530707 169.20576 
L 237.376597 169.79712 
L 237.34272 169.940237 
L 237.233388 170.38848 
L 237.104474 170.97984 
L 236.990825 171.5712 
L 236.891874 172.16256 
L 236.807133 172.75392 
L 236.75136 173.217929 
L 236.735426 173.34528 
L 236.675048 173.93664 
L 236.628497 174.528 
L 236.595547 175.11936 
L 236.57604 175.71072 
L 236.569881 176.30208 
L 236.577043 176.89344 
L 236.597558 177.4848 
L 236.631526 178.07616 
L 236.67911 178.66752 
L 236.74054 179.25888 
L 236.75136 179.344186 
L 236.813029 179.85024 
L 236.898825 180.4416 
L 236.998864 181.03296 
L 237.113642 181.62432 
L 237.243731 182.21568 
L 237.34272 182.618643 
L 237.387639 182.80704 
L 237.542976 183.3984 
L 237.71506 183.98976 
L 237.904787 184.58112 
L 237.93408 184.665931 
L 238.105349 185.17248 
L 238.323531 185.76384 
L 238.52544 186.266982 
L 238.560282 186.3552 
L 238.809151 186.94656 
L 239.079914 187.53792 
L 239.1168 187.614115 
L 239.363968 188.12928 
L 239.670712 188.72064 
L 239.70816 188.789267 
L 239.992398 189.312 
L 240.29952 189.837259 
L 240.338182 189.90336 
L 240.701187 190.49472 
L 240.89088 190.785763 
L 241.087758 191.08608 
L 241.48224 191.653245 
L 241.499233 191.67744 
L 241.931918 192.2688 
L 242.0736 192.453049 
L 242.391488 192.86016 
L 242.66496 193.194343 
L 242.879523 193.45152 
L 243.25632 193.884372 
L 243.397566 194.04288 
L 243.84768 194.529108 
L 243.947717 194.63424 
L 244.43904 195.133397 
L 244.532716 195.2256 
L 245.0304 195.701145 
L 245.156039 195.81696 
L 245.62176 196.235455 
L 245.822027 196.40832 
L 246.21312 196.738748 
L 246.536045 196.99968 
L 246.80448 197.212846 
L 247.304686 197.59104 
L 247.39584 197.659043 
L 247.9872 198.081465 
L 248.135771 198.1824 
L 248.57856 198.480871 
L 249.040635 198.77376 
L 249.16992 198.855387 
L 249.76128 199.210562 
L 250.034976 199.36512 
L 250.35264 199.544785 
L 250.944 199.858383 
L 251.140469 199.95648 
L 251.53536 200.155031 
L 252.12672 200.431802 
L 252.392037 200.54784 
L 252.71808 200.692215 
L 253.30944 200.935882 
L 253.84643 201.1392 
L 253.9008 201.160155 
L 254.49216 201.373549 
L 255.08352 201.568182 
L 255.625383 201.73056 
L 255.67488 201.745764 
L 256.26624 201.91334 
L 256.8576 202.064198 
L 257.44896 202.199111 
L 258.04032 202.318761 
L 258.057892 202.32192 
L 258.63168 202.428728 
z
" clip-path="url(#p9c256eaff9)" style="fill: none; stroke: #440154; stroke-width: 1.5"/>
   </g>
   <g id="PathCollection_8">
    <path d="M 359.284379 307.584 
L 359.75424 307.368338 
L 360.3456 307.075317 
L 360.503184 306.99264 
L 360.93696 306.76626 
L 361.52832 306.43452 
L 361.58483 306.40128 
L 362.11968 306.086624 
L 362.559603 305.80992 
L 362.71104 305.714283 
L 363.3024 305.320967 
L 363.449043 305.21856 
L 363.89376 304.905013 
L 364.26709 304.6272 
L 364.48512 304.462746 
L 365.023832 304.03584 
L 365.07648 303.993381 
L 365.66784 303.496941 
L 365.727999 303.44448 
L 366.2592 302.970396 
L 366.385735 302.85312 
L 366.85056 302.410402 
L 367.00148 302.26176 
L 367.44192 301.814124 
L 367.579246 301.6704 
L 368.03328 301.177974 
L 368.12223 301.07904 
L 368.62464 300.497481 
L 368.63293 300.48768 
L 369.116093 299.89632 
L 369.216 299.768237 
" clip-path="url(#p9c256eaff9)" style="fill: none; stroke: #440154; stroke-width: 1.5"/>
    <path d="M 369.216 267.096698 
L 367.952357 265.59744 
L 366.180456 263.82336 
L 364.48512 262.402046 
L 362.258714 260.86656 
L 360.3456 259.789544 
L 357.98016 258.726923 
L 355.53857 257.90976 
L 353.24928 257.368745 
L 350.88384 257.028155 
L 348.5184 256.90502 
L 346.15296 256.992209 
L 343.671167 257.3184 
L 341.42208 257.817478 
L 339.05664 258.5751 
L 336.6912 259.589501 
L 334.32576 260.897238 
L 332.55168 262.100533 
L 330.453966 263.82336 
L 328.681779 265.59744 
L 327.207235 267.37152 
L 325.967505 269.1456 
L 324.61945 271.51104 
L 323.571516 273.87648 
L 322.782136 276.24192 
L 322.231343 278.60736 
L 321.906562 280.9728 
L 321.790129 283.33824 
L 321.9072 285.884388 
L 322.197103 288.06912 
L 322.729892 290.43456 
L 323.498666 292.8 
L 324.525417 295.16544 
L 325.846895 297.53088 
L 327.22944 299.522846 
L 328.512744 301.07904 
L 330.249685 302.85312 
L 332.367936 304.6272 
L 334.32576 305.969447 
L 336.6912 307.277004 
L 337.350278 307.584 
L 337.350278 307.584 
" clip-path="url(#p9c256eaff9)" style="fill: none; stroke: #440154; stroke-width: 1.5"/>
   </g>
   <g id="PathCollection_9">
    <path d="M 333.7344 262.076617 
L 334.32576 262.188876 
L 334.91712 262.286276 
L 335.50848 262.369296 
L 336.09984 262.438345 
L 336.6912 262.493758 
L 337.28256 262.535805 
L 337.87392 262.564689 
L 338.46528 262.580548 
L 339.05664 262.583459 
L 339.648 262.573436 
L 340.23936 262.55043 
L 340.83072 262.514332 
L 341.42208 262.464966 
L 342.01344 262.402095 
L 342.6048 262.325412 
L 343.19616 262.234542 
L 343.78752 262.129038 
L 344.180272 262.04928 
L 344.37888 262.010277 
L 344.97024 261.880192 
L 345.5616 261.734422 
L 346.15296 261.572223 
L 346.532391 261.45792 
L 346.74432 261.395652 
L 347.33568 261.206764 
L 347.92704 260.999481 
L 348.277252 260.86656 
L 348.5184 260.776669 
L 349.10976 260.539625 
L 349.70112 260.28141 
L 349.714586 260.2752 
L 350.29248 260.011631 
L 350.88384 259.718853 
L 350.95096 259.68384 
L 351.4752 259.411909 
L 352.045885 259.09248 
L 352.06656 259.080928 
L 352.65792 258.734641 
L 353.03123 258.50112 
L 353.24928 258.364218 
L 353.84064 257.971472 
L 353.929483 257.90976 
L 354.432 257.557482 
L 354.755003 257.3184 
L 355.02336 257.117138 
L 355.51826 256.72704 
L 355.61472 256.649693 
L 356.20608 256.154391 
L 356.22765 256.13568 
L 356.79744 255.630025 
L 356.890402 255.54432 
L 357.3888 255.072318 
L 357.510636 254.95296 
L 357.98016 254.478492 
L 358.092452 254.3616 
L 358.57152 253.845021 
L 358.639121 253.77024 
L 359.153452 253.17888 
L 359.16288 253.167639 
L 359.639906 252.58752 
L 359.75424 252.441829 
L 360.098491 251.99616 
L 360.3456 251.659436 
L 360.530264 251.4048 
L 360.935869 250.81344 
L 360.93696 250.811783 
L 361.322736 250.22208 
L 361.52832 249.887091 
L 361.685275 249.63072 
L 362.026618 249.03936 
L 362.11968 248.868783 
L 362.349946 248.448 
L 362.651305 247.85664 
L 362.71104 247.732477 
L 362.937723 247.26528 
L 363.203522 246.67392 
L 363.3024 246.438515 
L 363.454003 246.08256 
L 363.687685 245.4912 
L 363.89376 244.922122 
L 363.901986 244.89984 
L 364.106138 244.30848 
L 364.291969 243.71712 
L 364.460457 243.12576 
L 364.48512 243.031286 
L 364.61849 242.5344 
L 364.761262 241.94304 
L 364.888334 241.35168 
L 365.000346 240.76032 
L 365.07648 240.299807 
L 365.098912 240.16896 
L 365.18653 239.5776 
L 365.259866 238.98624 
L 365.319278 238.39488 
L 365.365054 237.80352 
L 365.397416 237.21216 
L 365.41652 236.6208 
L 365.422458 236.02944 
L 365.415257 235.43808 
L 365.394884 234.84672 
L 365.361241 234.25536 
L 365.314165 233.664 
L 365.253428 233.07264 
L 365.178736 232.48128 
L 365.089725 231.88992 
L 365.07648 231.813642 
L 364.990219 231.29856 
L 364.876785 230.7072 
L 364.748234 230.11584 
L 364.603917 229.52448 
L 364.48512 229.085539 
L 364.444993 228.93312 
L 364.274878 228.34176 
L 364.087331 227.7504 
L 363.89376 227.193866 
L 363.881895 227.15904 
L 363.666104 226.56768 
L 363.43046 225.97632 
L 363.3024 225.677266 
L 363.178936 225.38496 
L 362.910991 224.7936 
L 362.71104 224.383492 
L 362.623401 224.20224 
L 362.319671 223.61088 
L 362.11968 223.247024 
L 361.994995 223.01952 
L 361.651003 222.42816 
L 361.52832 222.228572 
L 361.286884 221.8368 
L 360.93696 221.303954 
L 360.898284 221.24544 
L 360.489547 220.65408 
L 360.3456 220.456293 
L 360.055701 220.06272 
L 359.75424 219.673779 
L 359.594819 219.47136 
L 359.16288 218.9478 
L 359.105813 218.88 
L 358.587458 218.28864 
L 358.57152 218.271063 
L 358.037681 217.69728 
L 357.98016 217.63758 
L 357.452391 217.10592 
L 357.3888 217.043801 
L 356.828264 216.51456 
L 356.79744 216.486222 
L 356.20608 215.961118 
L 356.161702 215.9232 
L 355.61472 215.465531 
L 355.447516 215.33184 
L 355.02336 214.998384 
L 354.678519 214.74048 
L 354.432 214.558477 
L 353.846477 214.14912 
L 353.84064 214.145075 
L 353.24928 213.751069 
L 352.940574 213.55776 
L 352.65792 213.381375 
L 352.06656 213.033901 
L 351.945435 212.9664 
L 351.4752 212.703815 
L 350.88384 212.397092 
L 350.839029 212.37504 
L 350.29248 212.104063 
L 349.70112 211.833493 
L 349.58538 211.78368 
L 349.10976 211.576327 
L 348.5184 211.338318 
L 348.125797 211.19232 
L 347.92704 211.117047 
L 347.33568 210.908877 
L 346.74432 210.71918 
L 346.341013 210.60096 
L 346.15296 210.54443 
L 345.5616 210.381503 
L 344.97024 210.235078 
L 344.37888 210.104409 
L 343.894991 210.0096 
L 343.78752 209.987821 
L 343.19616 209.881822 
L 342.6048 209.790526 
L 342.01344 209.713483 
L 341.42208 209.650316 
L 340.83072 209.600719 
L 340.23936 209.564451 
L 339.648 209.541338 
L 339.05664 209.531268 
L 338.46528 209.534192 
L 337.87392 209.550126 
L 337.28256 209.579145 
L 336.6912 209.621389 
L 336.09984 209.677062 
L 335.50848 209.746435 
L 334.91712 209.829845 
L 334.32576 209.927702 
L 333.894808 210.0096 
L 333.7344 210.039047 
L 333.14304 210.161341 
L 332.55168 210.299018 
L 331.96032 210.452775 
L 331.445427 210.60096 
L 331.36896 210.622401 
L 330.7776 210.802377 
L 330.18624 211.000262 
L 329.661032 211.19232 
L 329.59488 211.216052 
L 329.00352 211.442945 
L 328.41216 211.690355 
L 328.203308 211.78368 
L 327.8208 211.952539 
L 327.22944 212.233417 
L 326.950052 212.37504 
L 326.63808 212.532118 
L 326.04672 212.850267 
L 325.84289 212.9664 
L 325.45536 213.186911 
L 324.864 213.547177 
L 324.84735 213.55776 
L 324.27264 213.924586 
L 323.941669 214.14912 
L 323.68128 214.327204 
L 323.110025 214.74048 
L 323.08992 214.755201 
L 322.49856 215.20573 
L 322.340651 215.33184 
L 321.9072 215.68416 
L 321.625814 215.9232 
L 321.31584 216.192291 
L 320.959083 216.51456 
L 320.72448 216.732012 
L 320.335139 217.10592 
L 320.13312 217.305819 
L 319.749679 217.69728 
L 319.54176 217.91691 
L 319.199256 218.28864 
L 318.9504 218.569295 
L 318.681158 218.88 
L 318.35904 219.267948 
L 318.19331 219.47136 
L 317.76768 220.018985 
L 317.734192 220.06272 
L 317.298859 220.65408 
L 317.17632 220.829333 
L 316.888083 221.24544 
L 316.58496 221.709826 
L 316.502528 221.8368 
L 316.13701 222.42816 
L 315.9936 222.674373 
L 315.792554 223.01952 
L 315.469919 223.61088 
L 315.40224 223.742037 
L 315.163457 224.20224 
L 314.878674 224.7936 
L 314.81088 224.943217 
L 314.608521 225.38496 
L 314.357628 225.97632 
L 314.21952 226.327293 
L 314.123372 226.56768 
L 313.903325 227.15904 
L 313.702329 227.7504 
L 313.62816 227.986967 
L 313.514306 228.34176 
L 313.340667 228.93312 
L 313.183917 229.52448 
L 313.04325 230.11584 
L 313.0368 230.145844 
L 312.912221 230.7072 
L 312.796326 231.29856 
L 312.695299 231.88992 
L 312.60864 232.48128 
L 312.535922 233.07264 
L 312.476791 233.664 
L 312.44544 234.067783 
L 312.430228 234.25536 
L 312.395823 234.84672 
L 312.374988 235.43808 
L 312.367624 236.02944 
L 312.373696 236.6208 
L 312.393233 237.21216 
L 312.426328 237.80352 
L 312.44544 238.045731 
L 312.471812 238.39488 
L 312.529654 238.98624 
L 312.601052 239.5776 
L 312.686355 240.16896 
L 312.78598 240.76032 
L 312.900422 241.35168 
L 313.030251 241.94304 
L 313.0368 241.970019 
L 313.169712 242.5344 
L 313.324883 243.12576 
L 313.496861 243.71712 
L 313.62816 244.129166 
L 313.683976 244.30848 
L 313.883199 244.89984 
L 314.101366 245.4912 
L 314.21952 245.78831 
L 314.334626 246.08256 
L 314.583475 246.67392 
L 314.81088 247.172886 
L 314.852525 247.26528 
L 315.135059 247.85664 
L 315.40224 248.373953 
L 315.440268 248.448 
L 315.760404 249.03936 
L 315.9936 249.441384 
L 316.103403 249.63072 
L 316.466116 250.22208 
L 316.58496 250.405848 
L 316.84995 250.81344 
L 317.17632 251.286341 
L 317.25883 251.4048 
L 317.690823 251.99616 
L 317.76768 252.096876 
L 318.147663 252.58752 
L 318.35904 252.847815 
L 318.632981 253.17888 
L 318.9504 253.546348 
L 319.148263 253.77024 
L 319.54176 254.198629 
L 319.695543 254.3616 
L 320.13312 254.809659 
L 320.277489 254.95296 
L 320.72448 255.383472 
L 320.897489 255.54432 
L 321.31584 255.923285 
L 321.559783 256.13568 
L 321.9072 256.431613 
L 322.269617 256.72704 
L 322.49856 256.910361 
L 323.033437 257.3184 
L 323.08992 257.360896 
L 323.68128 257.788066 
L 323.858735 257.90976 
L 324.27264 258.191256 
L 324.756827 258.50112 
L 324.864 258.569407 
L 325.45536 258.928441 
L 325.742904 259.09248 
L 326.04672 259.265989 
L 326.63808 259.582982 
L 326.837891 259.68384 
L 327.22944 259.882774 
L 327.8208 260.162572 
L 328.075306 260.2752 
L 328.41216 260.42606 
L 329.00352 260.672466 
L 329.509578 260.86656 
L 329.59488 260.899848 
L 330.18624 261.115769 
L 330.7776 261.31281 
L 331.254498 261.45792 
L 331.36896 261.493604 
L 331.96032 261.663468 
L 332.55168 261.816539 
L 333.14304 261.9536 
L 333.606309 262.04928 
L 333.7344 262.076617 
z
" clip-path="url(#p9c256eaff9)" style="fill: none; stroke: #440154; stroke-width: 1.5"/>
   </g>
   <g id="PathCollection_10">
    <path d="M 317.17632 217.762379 
L 317.76768 217.829371 
L 318.35904 217.882496 
L 318.9504 217.92201 
L 319.54176 217.948103 
L 320.13312 217.960902 
L 320.72448 217.960469 
L 321.31584 217.9468 
L 321.9072 217.91983 
L 322.49856 217.87943 
L 323.08992 217.825404 
L 323.68128 217.757491 
L 324.115921 217.69728 
L 324.27264 217.676398 
L 324.864 217.58423 
L 325.45536 217.477681 
L 326.04672 217.35622 
L 326.63808 217.219238 
L 327.077508 217.10592 
L 327.22944 217.067852 
L 327.8208 216.905379 
L 328.41216 216.725838 
L 329.00352 216.52829 
L 329.041858 216.51456 
L 329.59488 216.320472 
L 330.18624 216.093902 
L 330.598097 215.9232 
L 330.7776 215.849899 
L 331.36896 215.591885 
L 331.918361 215.33184 
L 331.96032 215.312167 
L 332.55168 215.019453 
L 333.073232 214.74048 
L 333.14304 214.70329 
L 333.7344 214.371672 
L 334.105706 214.14912 
L 334.32576 214.017036 
L 334.91712 213.641196 
L 335.042209 213.55776 
L 335.50848 213.244591 
L 335.899572 212.9664 
L 336.09984 212.822391 
L 336.690009 212.37504 
L 336.6912 212.374124 
L 337.28256 211.901919 
L 337.424095 211.78368 
L 337.87392 211.400126 
L 338.107869 211.19232 
L 338.46528 210.866966 
L 338.747001 210.60096 
L 339.05664 210.300097 
L 339.346099 210.0096 
L 339.648 209.696504 
L 339.908864 209.41824 
L 340.23936 209.052384 
L 340.438229 208.82688 
L 340.83072 208.363014 
L 340.936463 208.23552 
L 341.405727 207.64416 
L 341.42208 207.622735 
L 341.850893 207.0528 
L 342.01344 206.824942 
L 342.27007 206.46144 
L 342.6048 205.959027 
L 342.663679 205.87008 
L 343.037509 205.27872 
L 343.19616 205.012174 
L 343.389305 204.68736 
L 343.719215 204.096 
L 343.78752 203.966651 
L 344.032589 203.50464 
L 344.323824 202.91328 
L 344.37888 202.794758 
L 344.600709 202.32192 
L 344.857415 201.73056 
L 344.97024 201.451497 
L 345.098449 201.1392 
L 345.323829 200.54784 
L 345.529901 199.95648 
L 345.5616 199.858534 
L 345.724884 199.36512 
L 345.903323 198.77376 
L 346.064708 198.1824 
L 346.15296 197.825351 
L 346.212591 197.59104 
L 346.348473 196.99968 
L 346.468823 196.40832 
L 346.574245 195.81696 
L 346.665262 195.2256 
L 346.742322 194.63424 
L 346.74432 194.615767 
L 346.808876 194.04288 
L 346.861596 193.45152 
L 346.900636 192.86016 
L 346.926186 192.2688 
L 346.938369 191.67744 
L 346.937242 191.08608 
L 346.922802 190.49472 
L 346.894977 189.90336 
L 346.853634 189.312 
L 346.798574 188.72064 
L 346.74432 188.255152 
L 346.730234 188.12928 
L 346.650838 187.53792 
L 346.557415 186.94656 
L 346.449503 186.3552 
L 346.326567 185.76384 
L 346.187989 185.17248 
L 346.15296 185.036925 
L 346.038534 184.58112 
L 345.874322 183.98976 
L 345.692905 183.3984 
L 345.5616 183.006341 
L 345.496304 182.80704 
L 345.287043 182.21568 
L 345.058274 181.62432 
L 344.97024 181.411979 
L 344.815447 181.03296 
L 344.555046 180.4416 
L 344.37888 180.069376 
L 344.276162 179.85024 
L 343.980853 179.25888 
L 343.78752 178.897283 
L 343.66519 178.66752 
L 343.330742 178.07616 
L 343.19616 177.851462 
L 342.976275 177.4848 
L 342.6048 176.90465 
L 342.597585 176.89344 
L 342.200566 176.30208 
L 342.01344 176.038712 
L 341.777899 175.71072 
L 341.42208 175.240695 
L 341.328873 175.11936 
L 340.853164 174.528 
L 340.83072 174.501093 
L 340.350256 173.93664 
L 340.23936 173.811583 
L 339.815682 173.34528 
L 339.648 173.167364 
L 339.2471 172.75392 
L 339.05664 172.56376 
L 338.641489 172.16256 
L 338.46528 171.997011 
L 337.995043 171.5712 
L 337.87392 171.464132 
L 337.303036 170.97984 
L 337.28256 170.962814 
L 336.6912 170.488412 
L 336.560658 170.38848 
L 336.09984 170.040771 
L 335.75936 169.79712 
L 335.50848 169.619456 
L 334.91712 169.223418 
L 334.889584 169.20576 
L 334.32576 168.845978 
L 333.93817 168.6144 
L 333.7344 168.492778 
L 333.14304 168.159089 
L 332.886517 168.02304 
L 332.55168 167.844672 
L 331.96032 167.550019 
L 331.706822 167.43168 
L 331.36896 167.272399 
L 330.7776 167.012578 
L 330.353962 166.84032 
L 330.18624 166.771075 
L 329.59488 166.542834 
L 329.00352 166.334082 
L 328.742399 166.24896 
L 328.41216 166.13889 
L 327.8208 165.95796 
L 327.22944 165.794229 
L 326.681924 165.6576 
L 326.63808 165.646336 
L 326.04672 165.508244 
L 325.45536 165.385798 
L 324.864 165.278385 
L 324.27264 165.18547 
L 323.68128 165.106596 
L 323.316493 165.06624 
L 323.08992 165.04013 
L 322.49856 164.985646 
L 321.9072 164.944904 
L 321.31584 164.917706 
L 320.72448 164.903922 
L 320.13312 164.903484 
L 319.54176 164.916392 
L 318.9504 164.942706 
L 318.35904 164.982554 
L 317.76768 165.036129 
L 317.502952 165.06624 
L 317.17632 165.101902 
L 316.58496 165.179869 
L 315.9936 165.271849 
L 315.40224 165.378296 
L 314.81088 165.499737 
L 314.21952 165.636782 
L 314.13801 165.6576 
L 313.62816 165.784067 
L 313.0368 165.9467 
L 312.44544 166.126474 
L 312.07624 166.24896 
L 311.85408 166.321039 
L 311.26272 166.528553 
L 310.67136 166.755478 
L 310.465076 166.84032 
L 310.08 166.996287 
L 309.48864 167.254674 
L 309.111899 167.43168 
L 308.89728 167.531519 
L 308.30592 167.824591 
L 307.93224 168.02304 
L 307.71456 168.138122 
L 307.1232 168.47005 
L 306.880672 168.6144 
L 306.53184 168.822216 
L 305.94048 169.198277 
L 305.929183 169.20576 
L 305.34912 169.592488 
L 305.059444 169.79712 
L 304.75776 170.012452 
L 304.258225 170.38848 
L 304.1664 170.458599 
L 303.57504 170.930502 
L 303.515572 170.97984 
L 302.98368 171.430011 
L 302.823615 171.5712 
L 302.39232 171.960874 
L 302.177204 172.16256 
L 301.80096 172.525373 
L 301.571594 172.75392 
L 301.2096 173.126456 
L 301.002963 173.34528 
L 300.61824 173.767846 
L 300.468278 173.93664 
L 300.02688 174.454171 
L 299.965184 174.528 
L 299.490331 175.11936 
L 299.43552 175.190574 
L 299.04106 175.71072 
L 298.84416 175.984391 
L 298.618049 176.30208 
L 298.2528 176.84553 
L 298.220821 176.89344 
L 297.842743 177.4848 
L 297.66144 177.786588 
L 297.487718 178.07616 
L 297.154076 178.66752 
L 297.07008 178.82501 
L 296.837737 179.25888 
L 296.543182 179.85024 
L 296.47872 179.987529 
L 296.263484 180.4416 
L 296.003787 181.03296 
L 295.88736 181.317565 
L 295.759991 181.62432 
L 295.531872 182.21568 
L 295.323206 182.80704 
L 295.296 182.889945 
L 295.125462 183.3984 
L 294.944586 183.98976 
L 294.780863 184.58112 
L 294.70464 184.884271 
L 294.630056 185.17248 
L 294.491911 185.76384 
L 294.369358 186.3552 
L 294.261784 186.94656 
L 294.168652 187.53792 
L 294.11328 187.950428 
L 294.088319 188.12928 
L 294.0195 188.72064 
L 293.964619 189.312 
L 293.923412 189.90336 
L 293.895677 190.49472 
L 293.881284 191.08608 
L 293.880161 191.67744 
L 293.892304 192.2688 
L 293.91777 192.86016 
L 293.956684 193.45152 
L 294.009232 194.04288 
L 294.075668 194.63424 
L 294.11328 194.911422 
L 294.154274 195.2256 
L 294.245006 195.81696 
L 294.350099 196.40832 
L 294.470073 196.99968 
L 294.605531 197.59104 
L 294.70464 197.979913 
L 294.754768 198.1824 
L 294.915671 198.77376 
L 295.093578 199.36512 
L 295.289419 199.95648 
L 295.296 199.975021 
L 295.495191 200.54784 
L 295.71993 201.1392 
L 295.88736 201.546418 
L 295.961932 201.73056 
L 296.217945 202.32192 
L 296.47872 202.876914 
L 296.495641 202.91328 
L 296.786132 203.50464 
L 297.07008 204.039096 
L 297.100181 204.096 
L 297.429296 204.68736 
L 297.66144 205.077122 
L 297.781648 205.27872 
L 298.154632 205.87008 
L 298.2528 206.018132 
L 298.548692 206.46144 
L 298.84416 206.879234 
L 298.968209 207.0528 
L 299.41298 207.64416 
L 299.43552 207.673017 
L 299.882035 208.23552 
L 300.02688 208.409842 
L 300.380449 208.82688 
L 300.61824 209.096012 
L 300.909919 209.41824 
L 301.2096 209.737292 
L 301.472725 210.0096 
L 301.80096 210.338355 
L 302.071812 210.60096 
L 302.39232 210.902965 
L 302.710898 211.19232 
L 302.98368 211.434103 
L 303.394608 211.78368 
L 303.57504 211.934082 
L 304.128643 212.37504 
L 304.1664 212.404627 
L 304.75776 212.850567 
L 304.91926 212.9664 
L 305.34912 213.271412 
L 305.7766 213.55776 
L 305.94048 213.666789 
L 306.53184 214.04066 
L 306.713063 214.14912 
L 307.1232 214.394259 
L 307.71456 214.724127 
L 307.745353 214.74048 
L 308.30592 215.039402 
L 308.89728 215.330545 
L 308.900052 215.33184 
L 309.48864 215.609487 
L 310.08 215.866077 
L 310.220433 215.9232 
L 310.67136 216.109384 
L 311.26272 216.334649 
L 311.777621 216.51456 
L 311.85408 216.541824 
L 312.44544 216.73816 
L 313.0368 216.916552 
L 313.62816 217.077936 
L 313.740519 217.10592 
L 314.21952 217.228715 
L 314.81088 217.364658 
L 315.40224 217.485123 
L 315.9936 217.590713 
L 316.58496 217.681954 
L 316.701253 217.69728 
L 317.17632 217.762379 
z
" clip-path="url(#p9c256eaff9)" style="fill: none; stroke: #440154; stroke-width: 1.5"/>
   </g>
   <g id="PathCollection_11">
    <path d="M 289.97376 177.550557 
L 290.56512 177.626014 
L 291.15648 177.687464 
L 291.74784 177.735206 
L 292.3392 177.769472 
L 292.93056 177.790425 
L 293.52192 177.798168 
L 294.11328 177.792736 
L 294.70464 177.774105 
L 295.296 177.742185 
L 295.88736 177.696821 
L 296.47872 177.637794 
L 297.07008 177.564819 
L 297.612698 177.4848 
L 297.66144 177.477881 
L 298.2528 177.380683 
L 298.84416 177.268966 
L 299.43552 177.142173 
L 300.02688 176.999667 
L 300.424491 176.89344 
L 300.61824 176.843106 
L 301.2096 176.67487 
L 301.80096 176.489284 
L 302.344883 176.30208 
L 302.39232 176.286093 
L 302.98368 176.072401 
L 303.57504 175.838974 
L 303.877238 175.71072 
L 304.1664 175.589712 
L 304.75776 175.324201 
L 305.181348 175.11936 
L 305.34912 175.038927 
L 305.94048 174.737906 
L 306.325277 174.528 
L 306.53184 174.415684 
L 307.1232 174.07475 
L 307.349478 173.93664 
L 307.71456 173.713313 
L 308.278843 173.34528 
L 308.30592 173.327511 
L 308.89728 172.922488 
L 309.130405 172.75392 
L 309.48864 172.491847 
L 309.916186 172.16256 
L 310.08 172.034404 
L 310.644956 171.5712 
L 310.67136 171.549122 
L 311.26272 171.035758 
L 311.324755 170.97984 
L 311.85408 170.490459 
L 311.960544 170.38848 
L 312.44544 169.910116 
L 312.556459 169.79712 
L 313.0368 169.29149 
L 313.116068 169.20576 
L 313.62816 168.630521 
L 313.642185 168.6144 
L 314.139191 168.02304 
L 314.21952 167.923185 
L 314.608124 167.43168 
L 314.81088 167.162214 
L 315.049878 166.84032 
L 315.40224 166.339351 
L 315.465225 166.24896 
L 315.859194 165.6576 
L 315.9936 165.444268 
L 316.230853 165.06624 
L 316.578193 164.47488 
L 316.58496 164.462812 
L 316.910338 163.88352 
L 317.17632 163.372673 
L 317.21847 163.29216 
L 317.512116 162.7008 
L 317.76768 162.142705 
L 317.783079 162.10944 
L 318.042073 161.51808 
L 318.279855 160.92672 
L 318.35904 160.715258 
L 318.503862 160.33536 
L 318.711828 159.744 
L 318.901374 159.15264 
L 318.9504 158.986671 
L 319.079215 158.56128 
L 319.242047 157.96992 
L 319.388437 157.37856 
L 319.519132 156.7872 
L 319.54176 156.672816 
L 319.639316 156.19584 
L 319.745441 155.60448 
L 319.836934 155.01312 
L 319.914246 154.42176 
L 319.977753 153.8304 
L 320.027765 153.23904 
L 320.064525 152.64768 
L 320.08821 152.05632 
L 320.098933 151.46496 
L 320.096746 150.8736 
L 320.081639 150.28224 
L 320.053539 149.69088 
L 320.01231 149.09952 
L 319.957754 148.50816 
L 319.889606 147.9168 
L 319.807534 147.32544 
L 319.711136 146.73408 
L 319.599936 146.14272 
L 319.54176 145.868722 
L 319.476551 145.55136 
L 319.340615 144.96 
L 319.18874 144.36864 
L 319.020149 143.77728 
L 318.9504 143.55281 
L 318.83913 143.18592 
L 318.643459 142.59456 
L 318.429003 142.0032 
L 318.35904 141.823471 
L 318.201556 141.41184 
L 317.956738 140.82048 
L 317.76768 140.397449 
L 317.693344 140.22912 
L 317.415283 139.63776 
L 317.17632 139.166595 
L 317.115757 139.0464 
L 316.800673 138.45504 
L 316.58496 138.076762 
L 316.463581 137.86368 
L 316.10666 137.27232 
L 315.9936 137.094653 
L 315.729182 136.68096 
L 315.40224 136.199686 
L 315.326832 136.0896 
L 314.902095 135.49824 
L 314.81088 135.376887 
L 314.452665 134.90688 
L 314.21952 134.615468 
L 313.97522 134.31552 
L 313.62816 133.90778 
L 313.468405 133.72416 
L 313.0368 133.247391 
L 312.930331 133.1328 
L 312.44544 132.629071 
L 312.358503 132.54144 
L 311.85408 132.048593 
L 311.749727 131.95008 
L 311.26272 131.502577 
L 311.099994 131.35872 
L 310.67136 130.988366 
L 310.404334 130.76736 
L 310.08 130.503932 
L 309.656628 130.176 
L 309.48864 130.047797 
L 308.89728 129.617913 
L 308.84951 129.58464 
L 308.30592 129.209511 
L 307.973287 128.99328 
L 307.71456 128.825988 
L 307.1232 128.465139 
L 307.014157 128.40192 
L 306.53184 128.12225 
L 305.953442 127.81056 
L 305.94048 127.803547 
L 305.34912 127.498521 
L 304.761371 127.2192 
L 304.75776 127.217468 
L 304.1664 126.948223 
L 303.57504 126.700795 
L 303.388346 126.62784 
L 302.98368 126.467091 
L 302.39232 126.250234 
L 301.80096 126.052228 
L 301.750286 126.03648 
L 301.2096 125.864478 
L 300.61824 125.693626 
L 300.02688 125.539504 
L 299.625098 125.44512 
L 299.43552 125.399215 
L 298.84416 125.270358 
L 298.2528 125.156822 
L 297.66144 125.058041 
L 297.07008 124.973526 
L 296.47872 124.902863 
L 295.971182 124.85376 
L 295.88736 124.845302 
L 295.296 124.799167 
L 294.70464 124.766703 
L 294.11328 124.747755 
L 293.52192 124.742231 
L 292.93056 124.750106 
L 292.3392 124.771416 
L 291.74784 124.806264 
L 291.169298 124.85376 
L 291.15648 124.854768 
L 290.56512 124.91427 
L 289.97376 124.987336 
L 289.3824 125.07432 
L 288.79104 125.175651 
L 288.19968 125.291832 
L 287.60832 125.42344 
L 287.520257 125.44512 
L 287.01696 125.56536 
L 286.4256 125.722356 
L 285.83424 125.896231 
L 285.398999 126.03648 
L 285.24288 126.085638 
L 284.65152 126.286871 
L 284.06016 126.507152 
L 283.759513 126.62784 
L 283.4688 126.742674 
L 282.87744 126.993823 
L 282.387125 127.2192 
L 282.28608 127.26515 
L 281.69472 127.550229 
L 281.19461 127.81056 
L 281.10336 127.857808 
L 280.512 128.180799 
L 280.133565 128.40192 
L 279.92064 128.52635 
L 279.32928 128.892307 
L 279.174211 128.99328 
L 278.73792 129.278974 
L 278.297961 129.58464 
L 278.14656 129.690836 
L 277.5552 130.126805 
L 277.49114 130.176 
L 276.96384 130.587103 
L 276.743237 130.76736 
L 276.37248 131.076158 
L 276.047346 131.35872 
L 275.78112 131.595513 
L 275.397412 131.95008 
L 275.18976 132.14727 
L 274.788515 132.54144 
L 274.5984 132.734171 
L 274.216691 133.1328 
L 274.00704 133.359697 
L 273.67878 133.72416 
L 273.41568 134.028193 
L 273.172319 134.31552 
L 272.82432 134.745027 
L 272.695449 134.90688 
L 272.246431 135.49824 
L 272.23296 135.516699 
L 271.81979 136.0896 
L 271.6416 136.351023 
L 271.418481 136.68096 
L 271.05024 137.259869 
L 271.042352 137.27232 
L 270.683194 137.86368 
L 270.45888 138.259321 
L 270.34775 138.45504 
L 270.030567 139.0464 
L 269.86752 139.371471 
L 269.73303 139.63776 
L 269.453006 140.22912 
L 269.27616 140.631372 
L 269.19199 140.82048 
L 268.94535 141.41184 
L 268.719189 142.0032 
L 268.6848 142.099507 
L 268.504585 142.59456 
L 268.307382 143.18592 
L 268.128062 143.77728 
L 268.09344 143.901449 
L 267.959708 144.36864 
L 267.806587 144.96 
L 267.669535 145.55136 
L 267.547857 146.14272 
L 267.50208 146.394028 
L 267.437946 146.73408 
L 267.340721 147.32544 
L 267.257945 147.9168 
L 267.189212 148.50816 
L 267.134188 149.09952 
L 267.092606 149.69088 
L 267.064264 150.28224 
L 267.049028 150.8736 
L 267.046822 151.46496 
L 267.057637 152.05632 
L 267.081525 152.64768 
L 267.1186 153.23904 
L 267.169042 153.8304 
L 267.233094 154.42176 
L 267.311069 155.01312 
L 267.403347 155.60448 
L 267.50208 156.150497 
L 267.509995 156.19584 
L 267.626604 156.7872 
L 267.758372 157.37856 
L 267.905963 157.96992 
L 268.070132 158.56128 
L 268.09344 158.638552 
L 268.244651 159.15264 
L 268.435681 159.744 
L 268.645275 160.33536 
L 268.6848 160.439457 
L 268.866467 160.92672 
L 269.10602 161.51808 
L 269.27616 161.907501 
L 269.363261 162.10944 
L 269.635513 162.7008 
L 269.86752 163.167896 
L 269.928783 163.29216 
L 270.237354 163.88352 
L 270.45888 164.279617 
L 270.567865 164.47488 
L 270.917381 165.06624 
L 271.05024 165.278868 
L 271.287706 165.6576 
L 271.6416 166.187919 
L 271.682635 166.24896 
L 272.098253 166.84032 
L 272.23296 167.022598 
L 272.539207 167.43168 
L 272.82432 167.794025 
L 273.007592 168.02304 
L 273.41568 168.510388 
L 273.504619 168.6144 
L 274.00704 169.178418 
L 274.032013 169.20576 
L 274.591957 169.79712 
L 274.5984 169.803713 
L 275.187779 170.38848 
L 275.18976 170.390388 
L 275.78112 170.942239 
L 275.822951 170.97984 
L 276.37248 171.46207 
L 276.502171 171.5712 
L 276.96384 171.952003 
L 277.231235 172.16256 
L 277.5552 172.413633 
L 278.017215 172.75392 
L 278.14656 172.848055 
L 278.73792 173.258802 
L 278.868743 173.34528 
L 279.32928 173.647764 
L 279.79794 173.93664 
L 279.92064 174.012081 
L 280.512 174.357859 
L 280.822324 174.528 
L 281.10336 174.682539 
L 281.69472 174.987898 
L 281.966439 175.11936 
L 282.28608 175.275309 
L 282.87744 175.544744 
L 283.270048 175.71072 
L 283.4688 175.795909 
L 284.06016 176.032925 
L 284.65152 176.249991 
L 284.804203 176.30208 
L 285.24288 176.454877 
L 285.83424 176.643603 
L 286.4256 176.814816 
L 286.723622 176.89344 
L 287.01696 176.973003 
L 287.60832 177.118336 
L 288.19968 177.247836 
L 288.79104 177.362154 
L 289.3824 177.461862 
L 289.539662 177.4848 
L 289.97376 177.550557 
z
" clip-path="url(#p9c256eaff9)" style="fill: none; stroke: #440154; stroke-width: 1.5"/>
   </g>
   <g id="patch_5">
    <path d="M 103.104 307.584 
L 103.104 41.472 
" style="fill: none; stroke: #000000; stroke-width: 0.8; stroke-linejoin: miter; stroke-linecap: square"/>
   </g>
   <g id="patch_6">
    <path d="M 369.216 307.584 
L 369.216 41.472 
" style="fill: none; stroke: #000000; stroke-width: 0.8; stroke-linejoin: miter; stroke-linecap: square"/>
   </g>
   <g id="patch_7">
    <path d="M 103.104 307.584 
L 369.216 307.584 
" style="fill: none; stroke: #000000; stroke-width: 0.8; stroke-linejoin: miter; stroke-linecap: square"/>
   </g>
   <g id="patch_8">
    <path d="M 103.104 41.472 
L 369.216 41.472 
" style="fill: none; stroke: #000000; stroke-width: 0.8; stroke-linejoin: miter; stroke-linecap: square"/>
   </g>
  </g>
 </g>
 <defs>
  <clipPath id="p9c256eaff9">
   <rect x="103.104" y="41.472" width="266.112" height="266.112"/>
  </clipPath>
 </defs>
</svg>
